<?xml version="1.0" encoding="utf-8" standalone="no"?>
<svg version="1.1" shape-rendering="geometricPrecision" width="680.314960629921" height="77.4803149606299" viewBox="0 0 680.314960629921 77.4803149606299" xmlns="http://www.w3.org/2000/svg">
  <g id="Grid" transform="translate(0 0) scale(3.77952755905512)">
    <path id="MajorGrid" d=" M 0 0 H 180 M 0 10 H 180 M 0 20 H 180M 0 0 V 20M 10 0 V 20M 20 0 V 20M 30 0 V 20M 40 0 V 20M 50 0 V 20M 60 0 V 20M 70 0 V 20M 80 0 V 20M 90 0 V 20M 100 0 V 20M 110 0 V 20M 120 0 V 20M 130 0 V 20M 140 0 V 20M 150 0 V 20M 160 0 V 20M 170 0 V 20M 180 0 V 20" style="fill:none;stroke:#f4c5bd;stroke-width:0.3;stroke-linecap:round;stroke-linejoin:round" />
    <path id="MinorGrid" d=" M 0 1 H 180 M 0 2 H 180 M 0 3 H 180 M 0 4 H 180 M 0 5 H 180 M 0 6 H 180 M 0 7 H 180 M 0 8 H 180 M 0 9 H 180 M 0 11 H 180 M 0 12 H 180 M 0 13 H 180 M 0 14 H 180 M 0 15 H 180 M 0 16 H 180 M 0 17 H 180 M 0 18 H 180 M 0 19 H 180 M 1 0 V 20 M 2 0 V 20 M 3 0 V 20 M 4 0 V 20 M 5 0 V 20 M 6 0 V 20 M 7 0 V 20 M 8 0 V 20 M 9 0 V 20 M 11 0 V 20 M 12 0 V 20 M 13 0 V 20 M 14 0 V 20 M 15 0 V 20 M 16 0 V 20 M 17 0 V 20 M 18 0 V 20 M 19 0 V 20 M 21 0 V 20 M 22 0 V 20 M 23 0 V 20 M 24 0 V 20 M 25 0 V 20 M 26 0 V 20 M 27 0 V 20 M 28 0 V 20 M 29 0 V 20 M 31 0 V 20 M 32 0 V 20 M 33 0 V 20 M 34 0 V 20 M 35 0 V 20 M 36 0 V 20 M 37 0 V 20 M 38 0 V 20 M 39 0 V 20 M 41 0 V 20 M 42 0 V 20 M 43 0 V 20 M 44 0 V 20 M 45 0 V 20 M 46 0 V 20 M 47 0 V 20 M 48 0 V 20 M 49 0 V 20 M 51 0 V 20 M 52 0 V 20 M 53 0 V 20 M 54 0 V 20 M 55 0 V 20 M 56 0 V 20 M 57 0 V 20 M 58 0 V 20 M 59 0 V 20 M 61 0 V 20 M 62 0 V 20 M 63 0 V 20 M 64 0 V 20 M 65 0 V 20 M 66 0 V 20 M 67 0 V 20 M 68 0 V 20 M 69 0 V 20 M 71 0 V 20 M 72 0 V 20 M 73 0 V 20 M 74 0 V 20 M 75 0 V 20 M 76 0 V 20 M 77 0 V 20 M 78 0 V 20 M 79 0 V 20 M 81 0 V 20 M 82 0 V 20 M 83 0 V 20 M 84 0 V 20 M 85 0 V 20 M 86 0 V 20 M 87 0 V 20 M 88 0 V 20 M 89 0 V 20 M 91 0 V 20 M 92 0 V 20 M 93 0 V 20 M 94 0 V 20 M 95 0 V 20 M 96 0 V 20 M 97 0 V 20 M 98 0 V 20 M 99 0 V 20 M 101 0 V 20 M 102 0 V 20 M 103 0 V 20 M 104 0 V 20 M 105 0 V 20 M 106 0 V 20 M 107 0 V 20 M 108 0 V 20 M 109 0 V 20 M 111 0 V 20 M 112 0 V 20 M 113 0 V 20 M 114 0 V 20 M 115 0 V 20 M 116 0 V 20 M 117 0 V 20 M 118 0 V 20 M 119 0 V 20 M 121 0 V 20 M 122 0 V 20 M 123 0 V 20 M 124 0 V 20 M 125 0 V 20 M 126 0 V 20 M 127 0 V 20 M 128 0 V 20 M 129 0 V 20 M 131 0 V 20 M 132 0 V 20 M 133 0 V 20 M 134 0 V 20 M 135 0 V 20 M 136 0 V 20 M 137 0 V 20 M 138 0 V 20 M 139 0 V 20 M 141 0 V 20 M 142 0 V 20 M 143 0 V 20 M 144 0 V 20 M 145 0 V 20 M 146 0 V 20 M 147 0 V 20 M 148 0 V 20 M 149 0 V 20 M 151 0 V 20 M 152 0 V 20 M 153 0 V 20 M 154 0 V 20 M 155 0 V 20 M 156 0 V 20 M 157 0 V 20 M 158 0 V 20 M 159 0 V 20 M 161 0 V 20 M 162 0 V 20 M 163 0 V 20 M 164 0 V 20 M 165 0 V 20 M 166 0 V 20 M 167 0 V 20 M 168 0 V 20 M 169 0 V 20 M 171 0 V 20 M 172 0 V 20 M 173 0 V 20 M 174 0 V 20 M 175 0 V 20 M 176 0 V 20 M 177 0 V 20 M 178 0 V 20 M 179 0 V 20" style="fill:none;stroke:#f4c5bd;stroke-width:0.1;stroke-linecap:round;stroke-linejoin:round" />
  </g>
  <polyline transform="translate(657.637795275591 56.6929133858268) scale(3.77952755905512)" style="fill:none;stroke:#808080;stroke-width:0.3;stroke-linecap:round;stroke-linejoin:round" points="0,5 2,5 2,0 4,0 4,5 6,5 " />
  <text x="623.622047244095" y="15.7795275590551" style="font-family:Arial, sans-serif; font-size:12px; fill:#808080;">10 мм/с</text>
  <g id="ECG" transform=" scale(3.77952755905512)" style="fill:none;stroke:black;stroke-width:0.25;stroke-linecap:round;stroke-linejoin:round">
    <polyline id="ECG0_II" transform="translate(0 0)" points="0,13.7 0,13.8 0.1,13.8 0.2,13.8 0.2,13.9 0.3,14 0.3,13.9 0.4,13.9 0.4,14 0.5,13.9 0.6,14 0.7,14 0.7,13.8 0.8,13.8 0.8,13.5 0.9,13.4 0.9,13.3 0.9,13.2 1,13.3 1,13.2 1.1,13.1 1.1,13 1.2,13 1.2,13.1 1.3,13 1.4,13.2 1.4,13.4 1.4,13.5 1.5,13.5 1.6,13.5 1.6,13.6 1.6,13.4 1.7,13.4 1.7,13.5 1.8,13.6 1.8,13.7 1.9,13.8 1.9,13.9 1.9,14 2,13.9 2,13.8 2.1,13.9 2.1,13.6 2.2,13.1 2.2,12.5 2.3,12 2.3,11.6 2.3,11.2 2.4,10.7 2.4,9.9 2.5,9.1 2.5,8.4 2.5,7.9 2.6,7.2 2.6,6.4 2.6,5.7 2.7,5.7 2.7,5.8 2.8,6.1 2.8,7.2 2.8,9.3 2.9,11.3 2.9,12.7 3,13.4 3,13.7 3,13.8 3.1,13.8 3.1,13.9 3.2,13.9 3.2,14 3.2,14.1 3.3,14.2 3.4,14.2 3.4,14.1 3.5,14.1 3.6,14.1 3.6,14 3.7,14 3.7,14.1 3.8,14.1 3.9,14 4,14 4.1,13.9 4.1,13.8 4.2,13.9 4.3,13.8 4.4,13.8 4.5,13.6 4.5,13.5 4.6,13.5 4.6,13.4 4.6,13.3 4.7,13.2 4.7,13.1 4.7,12.9 4.8,12.8 4.9,12.8 4.9,12.6 5,12.5 5,12.3 5.1,12.2 5.1,12.1 5.2,12 5.2,11.9 5.3,11.9 5.3,12 5.3,11.9 5.4,11.8 5.4,11.9 5.5,11.9 5.6,11.9 5.6,12 5.7,12.1 5.7,12.2 5.8,12.2 5.8,12.4 5.8,12.6 5.9,12.7 5.9,12.8 6,12.8 6,12.9 6.1,13.2 6.1,13.3 6.1,13.2 6.2,13 6.2,13.1 6.3,13 6.3,13.1 6.3,13.2 6.4,13.2 6.5,13.3 6.5,13.4 6.6,13.3 6.7,13.4 6.7,13.5 6.8,13.5 6.9,13.5 7,13.5 7,13.4 7.1,13.5 7.1,13.6 7.2,13.7 7.2,13.8 7.3,13.8 7.4,13.8 7.4,13.9 7.5,14.1 7.6,14.2 7.7,14.3 7.7,14.1 7.8,14.2 7.8,14.3 7.9,14.4 8,14.4 8.1,14.4 8.2,14.4 8.2,14.2 8.2,14.4 8.3,14.5 8.4,14.4 8.4,14.3 8.5,14.4 8.6,14.3 8.6,14.2 8.7,14.3 8.7,14.2 8.8,14.1 8.8,14.3 8.9,14.1 8.9,14 9,13.8 9.1,13.8 9.1,13.6 9.2,13.6 9.2,13.7 9.3,13.8 9.3,13.7 9.4,13.7 9.4,13.9 9.5,14 9.5,14.1 9.5,14.2 9.6,14.3 9.6,14.2 9.7,14.2 9.7,14.3 9.8,14.5 9.9,14.6 10,14.7 10,14.6 10.1,14.6 10.1,14.8 10.2,14.7 10.2,14.5 10.2,14.2 10.3,13.8 10.3,13.3 10.4,12.9 10.4,12.6 10.4,12.2 10.5,11.6 10.5,10.8 10.5,10.3 10.6,9.9 10.6,9.1 10.7,7.9 10.7,6.7 10.7,6 10.8,6.2 10.8,7.2 10.9,8.6 10.9,10.7 10.9,12.7 11,13.9 11,14.4 11.1,14.7 11.1,14.8 11.2,15 11.2,15.1 11.3,15.1 11.3,15.3 11.4,15.5 11.4,15.3 11.5,15.2 11.5,15.3 11.6,15.4 11.6,15.3 11.7,15.3 11.7,15.4 11.8,15.4 11.8,15.5 11.9,15.4 11.9,15.3 12,15.4 12.1,15.4 12.2,15.3 12.2,15.4 12.3,15.4 12.3,15.2 12.4,15.1 12.5,15.1 12.5,15.3 12.5,15.2 12.6,15.2 12.6,15 12.6,14.9 12.7,14.8 12.8,14.7 12.8,14.6 12.8,14.5 12.9,14.4 12.9,14.3 13,14.2 13,14.3 13,14.1 13.1,14 13.1,13.9 13.2,13.9 13.2,13.8 13.3,13.6 13.3,13.5 13.4,13.7 13.4,13.8 13.5,13.7 13.5,13.4 13.5,13.5 13.6,13.8 13.7,13.9 13.7,14 13.7,13.9 13.8,14 13.8,14.2 13.9,14.2 13.9,14.3 13.9,14.5 14,14.6 14,14.8 14,14.9 14.1,14.9 14.1,14.8 14.2,14.7 14.2,14.8 14.2,14.9 14.3,14.9 14.3,14.8 14.4,14.8 14.4,14.9 14.5,14.8 14.5,14.7 14.6,14.7 14.6,14.8 14.7,14.8 14.7,14.7 14.8,14.7 14.9,14.8 14.9,14.7 15,14.8 15,14.7 15.1,14.7 15.2,14.7 15.3,14.8 15.3,14.7 15.4,14.7 15.4,14.8 15.5,14.7 15.6,14.7 15.6,14.6 15.7,14.6 15.8,14.7 15.8,14.8 15.8,14.7 15.9,14.7 15.9,14.6 16,14.6 16,14.7 16,14.8 16.1,14.9 16.1,14.8 16.1,14.7 16.2,14.8 16.2,14.7 16.3,14.8 16.3,14.7 16.3,14.8 16.4,14.8 16.5,14.8 16.5,14.7 16.6,14.7 16.7,14.7 16.7,14.6 16.8,14.6 16.8,14.5 16.9,14.4 16.9,14.3 17,14.3 17,14.2 17.1,14.1 17.1,13.9 17.2,13.9 17.3,14 17.4,14.1 17.5,14.1 17.5,14.2 17.6,14.3 17.7,14.3 17.7,14.1 17.7,14.2 17.8,14.2 17.9,14.2 17.9,14.4 17.9,14.5 18,14.5 18.1,14.5 18.1,14.4 18.2,14.4 18.2,14.2 18.2,13.8 18.3,13.5 18.3,13.2 18.4,12.7 18.4,12.3 18.4,11.9 18.5,11.6 18.5,11 18.6,10.3 18.6,9.8 18.6,9.2 18.7,8.3 18.7,6.9 18.8,5.6 18.8,5.4 18.8,5.7 18.9,6.5 18.9,8.2 18.9,10.7 19,12.6 19,13.5 19.1,13.9 19.1,14 19.1,14.1 19.2,14.4 19.2,14.6 19.3,14.6 19.3,14.7 19.4,14.8 19.4,14.9 19.5,15.1 19.5,15 19.6,15 19.7,15.2 19.7,15.1 19.8,15.1 19.8,15.2 19.9,15.4 19.9,15.3 20,15.1 20,15 20.1,15 20.2,14.9 20.2,15 20.3,15 20.3,14.9 20.4,15 20.4,14.9 20.4,14.8 20.5,14.8 20.6,14.7 20.6,14.6 20.7,14.5 20.7,14.4 20.7,14.2 20.8,14.1 20.8,14 20.9,13.9 20.9,13.8 20.9,13.7 21,13.6 21,13.5 21.1,13.5 21.1,13.3 21.1,13.2 21.2,13.3 21.2,13.2 21.2,13.1 21.3,13 21.3,12.9 21.4,12.9 21.5,12.9 21.6,13 21.7,13.1 21.7,13.2 21.8,13.3 21.8,13.4 21.9,13.3 22,13.6 22,13.7 22.1,13.8 22.1,13.9 22.2,13.7 22.2,13.8 22.3,13.9 22.3,14 22.3,13.8 22.4,13.8 22.4,13.9 22.5,14 22.5,13.9 22.6,13.8 22.6,13.9 22.6,14 22.7,13.9 22.8,13.9 22.8,13.8 22.9,13.9 23,13.8 23,13.9 23,14.1 23.1,14.1 23.1,14 23.2,14 23.2,14.1 23.3,14.1 23.3,14.2 23.4,14.3 23.4,14.2 23.5,14.2 23.5,14.3 23.6,14.2 23.7,14.2 23.7,14.3 23.8,14.3 23.8,14.2 23.9,14.3 23.9,14.4 24,14.3 24,14.4 24,14.5 24.1,14.5 24.1,14.4 24.2,14.4 24.3,14.4 24.3,14.3 24.4,14.3 24.4,14.4 24.5,14.4 24.5,14.5 24.6,14.4 24.6,14.2 24.6,14.3 24.7,14.5 24.7,14.4 24.7,14.3 24.8,14.3 24.8,14.4 24.9,14.5 24.9,14.6 25,14.6 25,14.5 25.1,14.4 25.1,14.3 25.1,14.1 25.2,14.1 25.2,14.2 25.3,14.1 25.3,13.9 25.3,13.8 25.4,13.8 25.4,13.9 25.5,14 25.6,13.8 25.6,13.9 25.7,14.1 25.8,14.2 25.8,14.3 25.8,14.2 25.9,14.3 25.9,14.2 26,14.2 26,14.3 26,14.2 26.1,14.2 26.1,14.4 26.2,14.4 26.2,14.5 26.3,14.5 26.3,14.4 26.3,14.3 26.4,14.3 26.4,14.2 26.5,13.9 26.5,13.2 26.5,12.6 26.6,12.4 26.6,12.1 26.7,11.8 26.7,11.3 26.7,10.4 26.8,9.8 26.8,9.4 26.8,8.6 26.9,7.7 26.9,6.6 27,6.5 27,6.8 27,7.3 27.1,8.5 27.1,10.7 27.2,12.6 27.2,13.7 27.2,14.3 27.3,14.4 27.3,14.5 27.4,14.6 27.4,14.8 27.4,14.9 27.5,15 27.5,15.1 27.6,15.1 27.7,15.1 27.7,15 27.8,14.9 27.8,14.8 27.9,14.8 27.9,14.9 28,14.9 28,14.8 28.1,14.8 28.1,14.9 28.1,14.8 28.2,14.8 28.2,14.7 28.3,14.8 28.3,14.7 28.4,14.6 28.4,14.5 28.5,14.5 28.5,14.6 28.6,14.6 28.6,14.5 28.6,14.3 28.7,14.3 28.7,14.2 28.8,14.2 28.8,14.1 28.9,14 28.9,13.9 28.9,13.8 29,13.8 29,13.7 29.1,13.6 29.1,13.5 29.1,13.4 29.2,13.2 29.2,13.1 29.3,13 29.3,12.9 29.4,12.9 29.4,12.7 29.5,12.6 29.5,12.7 29.6,12.6 29.6,12.5 29.7,12.6 29.8,12.6 29.8,12.7 29.8,12.8 29.9,12.8 29.9,12.9 30,12.9 30,13.1 30,13.2 30.1,13.1 30.1,13.2 30.2,13.3 30.2,13.4 30.3,13.5 30.4,13.6 30.4,13.7 30.5,13.7 30.5,13.6 30.5,13.7 30.6,13.7 30.6,13.6 30.7,13.6 30.7,13.7 30.8,13.8 30.9,13.7 31,13.7 31.1,13.6 31.1,13.7 31.1,13.6 31.2,13.7 31.2,13.6 31.3,13.6 31.4,13.7 31.4,13.8 31.5,13.8 31.6,13.8 31.7,13.9 31.8,13.9 31.9,14.1 31.9,14 32,13.9 32.1,14 32.1,13.9 32.2,13.9 32.3,13.9 32.4,13.9 32.4,14 32.5,14 32.5,14.1 32.6,14.1 32.6,14 32.7,14 32.7,14.1 32.8,14 32.8,14.1 32.9,14 33,14.1 33.1,14.1 33.1,14 33.2,14 33.2,14.1 33.3,14.1 33.3,14 33.4,14 33.4,13.8 33.5,13.7 33.5,13.6 33.5,13.7 33.6,13.7 33.6,13.5 33.7,13.4 33.7,13.5 33.8,13.5 33.8,13.6 33.9,13.6 33.9,13.5 34,13.7 34,13.9 34.1,14 34.1,13.9 34.2,13.9 34.3,13.9 34.3,14 34.4,14.2 34.4,14.3 34.5,14.3 34.5,14.4 34.6,14.3 34.7,14.2 34.7,14 34.7,13.7 34.8,13.2 34.8,12.8 34.9,12.3 34.9,11.9 34.9,11.5 35,11 35,10.3 35.1,9.6 35.1,9 35.1,8.4 35.2,7.5 35.2,6.5 35.3,6 35.3,6.1 35.3,6.7 35.4,7.6 35.4,9.5 35.4,11.7 35.5,13.2 35.5,13.9 35.6,14.1 35.6,14.2 35.6,14.4 35.7,14.5 35.8,14.7 35.8,14.9 35.9,14.8 35.9,14.7 36,14.7 36,14.8 36.1,14.8 36.2,14.8 36.3,14.8 36.4,14.8 36.5,14.7 36.5,14.8 36.6,14.7 36.7,14.6 36.7,14.7 36.8,14.6 36.8,14.5 36.8,14.4 36.9,14.4 37,14.4 37,14.3 37.1,14.2 37.2,14.2 37.2,14.1 37.2,14 37.3,13.8 37.4,13.7 37.4,13.6 37.4,13.4 37.5,13.3 37.5,13.2 37.5,13.1 37.6,13 37.6,12.8 37.7,12.7 37.7,12.8 37.7,12.7 37.8,12.6 37.9,12.6 37.9,12.5 37.9,12.6 38,12.6 38.1,12.7 38.1,12.8 38.2,12.8 38.2,12.9 38.2,13 38.3,13.1 38.3,13.2 38.4,13.3 38.4,13.4 38.4,13.3 38.5,13.4 38.5,13.5 38.6,13.6 38.6,13.7 38.6,13.6 38.7,13.6 38.7,13.8 38.8,13.8 38.8,13.9 38.9,13.8 39,13.9 39,13.8 39.1,13.8 39.1,13.9 39.2,14 39.3,13.9 39.4,13.8 39.4,13.9 39.5,14 39.5,13.9 39.6,14 39.7,14 39.7,13.9 39.8,14 39.8,14.1 39.9,14.1 39.9,14.2 40,14.2 40,14.1 40.1,14.1 40.1,14.3 40.2,14.3 40.2,14.4 40.2,14.3 40.3,14.2 40.3,14.3 40.4,14.4 40.4,14.3 40.5,14.3 40.5,14.2 40.6,14.3 40.6,14.4 40.7,14.4 40.8,14.4 40.9,14.3 40.9,14.4 41,14.5 41,14.4 41.1,14.4 41.1,14.3 41.1,14.4 41.2,14.3 41.2,14.4 41.2,14.5 41.3,14.5 41.3,14.4 41.4,14.4 41.4,14.5 41.5,14.6 41.5,14.5 41.6,14.5 41.6,14.4 41.7,14.4 41.7,14.2 41.8,14.1 41.8,14 41.9,14 41.9,13.9 41.9,13.8 42,13.8 42.1,13.9 42.1,14 42.2,13.9 42.3,14 42.3,14.1 42.3,14.3 42.4,14.2 42.4,14.1 42.5,14.2 42.5,14.3 42.6,14.4 42.6,14.3 42.7,14.4 42.8,14.4 42.8,14.6 42.9,14.5 42.9,14.6 43,14.5 43,14.3 43,13.9 43.1,13.4 43.1,13 43.2,12.6 43.2,12.1 43.2,11.7 43.3,11.2 43.3,10.4 43.3,9.7 43.4,9.1 43.4,8.2 43.5,7.1 43.5,6 43.5,5.5 43.6,5.8 43.6,6.5 43.7,7.6 43.7,9.6 43.7,11.8 43.8,13.2 43.8,13.9 43.9,14.2 43.9,14.3 43.9,14.4 44,14.6 44,14.7 44,14.8 44.1,14.9 44.2,15 44.2,14.8 44.3,14.7 44.4,14.8 44.4,14.9 44.4,14.8 44.5,14.8 44.6,14.8 44.7,14.8 44.7,14.7 44.8,14.7 44.8,14.8 44.9,14.8 44.9,14.6 45,14.6 45.1,14.6 45.2,14.4 45.2,14.3 45.3,14.3 45.4,14.2 45.4,14 45.4,13.9 45.5,13.9 45.5,13.8 45.6,13.7 45.6,13.6 45.6,13.5 45.7,13.4 45.7,13.3 45.8,13.2 45.8,13 45.8,12.9 45.9,12.8 45.9,12.7 46,12.6 46,12.5 46.1,12.4 46.1,12.6 46.2,12.6 46.2,12.4 46.3,12.3 46.3,12.4 46.3,12.5 46.4,12.5 46.5,12.6 46.5,12.7 46.6,12.7 46.6,12.8 46.7,12.9 46.7,13 46.8,13.2 46.8,13.3 46.8,13.2 46.9,13.3 46.9,13.4 47,13.4 47.1,13.6 47.2,13.5 47.3,13.5 47.4,13.5 47.5,13.5 47.5,13.4 47.6,13.5 47.7,13.4 47.8,13.4 47.9,13.5 47.9,13.4 48,13.5 48.1,13.6 48.1,13.5 48.2,13.6 48.2,13.5 48.3,13.5 48.3,13.6 48.4,13.6 48.5,13.7 48.6,13.7 48.7,13.8 48.8,13.8 48.8,13.7 48.9,13.7 49,13.8 49,13.9 49.1,13.8 49.1,13.7 49.1,13.6 49.2,13.8 49.2,13.9 49.3,13.8 49.4,13.9 49.5,13.8 49.5,13.7 49.5,13.6 49.6,13.7 49.6,13.8 49.7,13.8 49.7,13.9 49.8,13.9 49.8,13.8 49.9,13.8 49.9,13.7 50,13.7 50,13.8 50.1,13.7 50.1,13.6 50.2,13.4 50.3,13.3 50.3,13.2 50.4,13.1 50.4,13 50.5,13 50.5,13.1 50.5,13.2 50.6,13.2 50.6,13.1 50.7,13.2 50.7,13.3 50.7,13.6 50.8,13.6 50.8,13.5 50.9,13.4 50.9,13.6 51,13.5 51,13.4 51.1,13.5 51.1,13.6 51.1,13.7 51.2,13.8 51.3,13.8 51.4,13.8 51.4,13.7 51.4,13.5 51.5,13.3 51.5,12.8 51.6,12.2 51.6,11.8 51.6,11.5 51.7,11.1 51.7,10.5 51.8,9.7 51.8,9.1 51.8,8.5 51.9,7.8 51.9,7 51.9,6.1 52,5.8 52,6 52.1,6.3 52.1,7 52.1,8.7 52.2,11 52.2,12.6 52.3,13.3 52.3,13.6 52.3,13.7 52.4,13.8 52.4,13.9 52.5,14 52.5,14.1 52.5,14.3 52.6,14.3 52.6,14.2 52.6,14.3 52.7,14.4 52.8,14.3 52.9,14.2 53,14.2 53,14.3 53,14.2 53.1,14.2 53.1,14.1 53.2,14.1 53.2,14.2 53.3,14.2 53.3,14.1 53.3,14 53.4,14 53.5,14 53.6,13.9 53.6,13.8 53.7,13.7 53.7,13.6 53.8,13.6 53.8,13.5 53.9,13.5 53.9,13.4 54,13.4 54,13.2 54,13.1 54.1,13 54.2,12.8 54.2,12.4 54.2,12.3 54.3,12.3 54.3,12.1 54.4,12.1 54.4,12 54.5,12 54.6,12 54.6,12.1 54.6,11.9 54.7,11.7 54.7,11.8 54.8,11.8 54.8,12 54.9,12.1 54.9,12.2 55,12.1 55.1,12.2 55.1,12.4 55.1,12.7 55.2,12.7 55.3,12.9 55.3,13 55.4,13.1 55.4,13 55.4,12.9 55.5,13 55.5,13.3 55.6,13.3 55.6,13.4 55.7,13.3 55.8,13.3 55.9,13.3 55.9,13.2 56,13.4 56,13.2 56.1,13.2 56.1,13.1 56.2,13.1 56.3,13.2 56.3,13.4 56.4,13.2 56.4,13.3 56.5,13.4 56.5,13.5 56.6,13.5 56.6,13.4 56.7,13.3 56.7,13.4 56.8,13.6 56.8,13.7 56.9,13.6 57,13.8 57,13.9 57.1,13.8 57.1,13.7 57.2,13.6 57.2,13.8 57.3,13.8 57.3,13.9 57.4,13.9 57.4,13.8 57.4,13.9 57.5,13.9 57.5,13.8 57.6,13.8 57.7,13.8 57.7,14 57.7,14.1 57.8,14 57.8,13.9 57.9,13.9 58,13.9 58.1,14 58.2,14 58.3,14 58.3,14.1 58.4,14 58.4,14.1 58.4,14 58.5,13.9 58.6,13.9 58.7,13.9 58.7,13.6 58.8,13.5 58.8,13.4 58.9,13.3 58.9,13.2 58.9,13.1 59,13.2 59,13.3 59.1,13.3 59.1,13.4 59.1,13.3 59.2,13.2 59.3,13.4 59.3,13.5 59.3,13.7 59.4,13.8 59.4,13.6 59.5,13.5 59.5,13.6 59.6,13.8 59.6,13.9 59.7,13.8 59.7,13.9 59.8,14 59.8,13.9 59.9,13.9 60,13.8 60,13.6 60,13.4 60.1,13 60.1,12.4 60.2,11.9 60.2,11.6 60.2,11.4 60.3,11 60.3,10.3 60.4,9.5 60.4,9 60.4,8.4 60.5,7.8 60.5,7.2 60.5,7 60.6,7.3 60.6,7.5 60.7,7.9 60.7,9.4 60.7,11.6 60.8,13.1 60.8,13.7 60.9,13.9 60.9,14 61,14.1 61,14.2 61.1,14.2 61.1,14.3 61.2,14.3 61.3,14.3 61.4,14.4 61.4,14.3 61.5,14.4 61.5,14.5 61.6,14.5 61.6,14.4 61.6,14.3 61.7,14.3 61.8,14.3 61.8,14.2 61.9,14.2 61.9,14.1 61.9,14 62,14 62.1,14.1 62.1,14.2 62.1,14.1 62.2,13.8 62.2,13.7 62.3,13.8 62.4,13.8 62.4,13.7 62.5,13.4 62.5,13.3 62.6,13.3 62.6,13.2 62.6,13.1 62.7,13 62.7,12.9 62.8,12.8 62.8,12.7 62.8,12.6 62.9,12.5 62.9,12.4 63,12.3 63,12.2 63,12.1 63.1,12.1 63.2,12.1 63.3,12.1 63.4,12.1 63.4,12.2 63.5,12.2 63.5,12.3 63.6,12.3 63.6,12.5 63.7,12.6 63.7,12.8 63.8,12.8 63.8,13 63.9,13 63.9,13.1 63.9,13.2 64,13.2 64,13.3 64.1,13.4 64.2,13.3 64.2,13.4 64.3,13.5 64.3,13.3 64.4,13.3 64.4,13.4 64.5,13.5 64.6,13.5 64.6,13.6 64.6,13.7 64.7,13.5 64.7,13.3 64.8,13.4 64.8,13.5 64.9,13.5 65,13.5 65,13.4 65.1,13.4 65.1,13.5 65.1,13.6 65.2,13.6 65.3,13.6 65.4,13.6 65.4,13.7 65.4,13.6 65.5,13.6 65.5,13.7 65.6,13.7 65.6,13.6 65.7,13.7 65.7,13.8 65.8,13.7 65.8,13.8 65.8,13.9 65.9,13.9 66,13.8 66,13.9 66.1,13.8 66.2,13.9 66.3,13.9 66.4,13.8 66.5,14 66.6,13.9 66.7,13.9 66.7,14 66.8,14 66.8,13.9 66.9,13.9 67,13.9 67,14 67.1,13.9 67.2,13.9 67.3,13.8 67.3,13.6 67.4,13.5 67.4,13.4 67.5,13.4 67.5,13.3 67.6,13.2 67.6,13.4 67.7,13.5 67.7,13.4 67.8,13.5 67.8,13.6 67.9,13.7 68,13.5 68,13.6 68.1,13.8 68.1,13.7 68.2,13.9 68.2,14 68.3,13.9 68.4,14.1 68.4,14 68.4,13.9 68.5,14 68.5,13.9 68.6,13.7 68.6,13.4 68.6,13.2 68.7,12.7 68.7,12.2 68.8,11.7 68.8,11.3 68.8,10.8 68.9,10.2 68.9,9.7 68.9,9.2 69,8.4 69,7.2 69.1,5.9 69.1,5.2 69.1,5.4 69.2,6.3 69.2,7.6 69.3,9.7 69.3,11.8 69.3,13 69.4,13.5 69.4,13.8 69.5,14 69.5,14.2 69.5,14.4 69.6,14.5 69.6,14.6 69.7,14.6 69.8,14.6 69.8,14.9 69.8,14.8 69.9,14.7 69.9,14.8 70,14.8 70,14.7 70.1,14.7 70.2,14.7 70.2,14.8 70.2,14.7 70.3,14.7 70.3,14.6 70.4,14.6 70.4,14.7 70.5,14.7 70.5,14.8 70.6,14.7 70.6,14.6 70.7,14.5 70.7,14.6 70.8,14.6 70.9,14.6 70.9,14.5 70.9,14.4 71,14.3 71,14.4 71.1,14.4 71.1,14.3 71.1,14.2 71.2,14 71.2,13.9 71.2,13.8 71.3,13.7 71.3,13.6 71.4,13.4 71.4,13.3 71.4,13.2 71.5,13.1 71.5,13 71.6,13 71.6,12.9 71.6,13 71.7,13 71.7,12.9 71.8,12.8 71.9,12.9 71.9,13.1 72,13.2 72,13.3 72.1,13.3 72.1,13.2 72.1,13.3 72.2,13.4 72.2,13.5 72.3,13.5 72.4,13.7 72.4,13.8 72.5,13.9 72.6,14 72.6,14.2 72.6,14.3 72.7,14.1 72.7,14 72.8,14 72.8,13.9 72.9,13.9 73,14 73,14.1 73.1,14.1 73.2,14.1 73.3,14.2 73.3,14.1 73.4,14.1 73.5,14.1 73.5,14.2 73.5,14.1 73.6,14.1 73.6,14.2 73.7,14.3 73.8,14.3 73.8,14.4 73.9,14.3 74,14.4 74,14.5 74.1,14.4 74.1,14.2 74.2,14.3 74.2,14.5 74.3,14.5 74.4,14.4 74.4,14.6 74.5,14.4 74.5,14.3 74.6,14.4 74.6,14.6 74.6,14.5 74.7,14.5 74.7,14.6 74.7,14.5 74.8,14.3 74.8,14.2 74.9,14.3 75,14.4 75,14.5 75.1,14.3 75.2,14.3 75.3,14.4 75.3,14.3 75.3,14.2 75.4,14.1 75.4,14.3 75.4,14.5 75.5,14.6 75.5,14.5 75.6,14.2 75.6,14.1 75.7,14.1 75.8,14 75.8,13.8 75.9,13.8 76,13.8 76,13.6 76.1,13.6 76.1,13.8 76.1,13.7 76.2,13.6 76.2,13.7 76.3,13.8 76.3,13.9 76.3,14.1 76.4,14.1 76.5,14 76.5,13.9 76.6,14 76.7,14.1 76.7,14 76.8,14.2 76.8,14.3 76.8,14.4 76.9,14.3 76.9,14.2 77,14.1 77,13.8 77,13.5 77.1,13.2 77.1,12.7 77.2,12.3 77.2,12.1 77.2,11.9 77.3,11.5 77.3,11 77.4,10.3 77.4,9.7 77.4,9 77.5,8.1 77.5,6.9 77.5,6.2 77.6,6.1 77.6,6.7 77.7,7.5 77.7,9.1 77.7,11.4 77.8,13.1 77.8,14 77.9,14.2 77.9,14.1 77.9,14.3 78,14.3 78,14.4 78.1,14.6 78.1,14.7 78.1,14.6 78.2,14.6 78.2,14.8 78.2,14.9 78.3,14.8 78.3,14.7 78.4,14.7 78.5,14.7 78.5,14.6 78.6,14.6 78.6,14.7 78.6,14.9 78.7,14.8 78.7,14.7 78.8,14.5 78.9,14.5 78.9,14.6 79,14.6 79,14.5 79.1,14.4 79.2,14.3 79.2,14.2 79.3,14.1 79.3,14.2 79.3,14 79.4,13.8 79.4,14 79.5,13.9 79.5,13.7 79.5,13.6 79.6,13.4 79.6,13.3 79.6,13.2 79.7,13.1 79.7,12.9 79.8,12.9 79.8,12.8 79.8,12.6 79.9,12.5 80,12.4 80,12.3 80.1,12.2 80.1,12.1 80.2,12.1 80.2,12.2 80.3,12.3 80.3,12.1 80.4,12 80.4,12.1 80.4,12.3 80.5,12.5 80.5,12.6 80.6,12.8 80.7,12.8 80.7,12.9 80.8,13 80.9,13 80.9,13.1 80.9,13.2 81,13.3 81,13.2 81.1,13.3 81.2,13.2 81.2,13.3 81.2,13.4 81.3,13.4 81.4,13.4 81.4,13.3 81.5,13.2 81.6,13.2 81.6,13.1 81.7,13.1 81.7,13.2 81.8,13.2 81.8,13.3 81.9,13.4 81.9,13.2 82,13.2 82,13.3 82.1,13.5 82.1,13.4 82.1,13.3 82.2,13.2 82.3,13.3 82.3,13.4 82.4,13.3 82.5,13.3 82.5,13.4 82.6,13.4 82.6,13.3 82.7,13.4 82.8,13.5 82.8,13.4 82.9,13.3 83,13.4 83,13.5 83.1,13.5 83.2,13.7 83.2,13.5 83.3,13.4 83.3,13.5 83.3,13.6 83.4,13.7 83.4,13.6 83.5,13.5 83.6,13.5 83.6,13.4 83.7,13.4 83.7,13.5 83.7,13.6 83.8,13.6 83.9,13.5 83.9,13.6 84,13.6 84,13.7 84.1,13.6 84.1,13.4 84.2,13.4 84.2,13.3 84.2,13.2 84.3,12.9 84.4,13 84.4,12.9 84.4,12.8 84.5,12.8 84.5,12.9 84.6,13 84.6,13.1 84.7,13 84.7,13.2 84.8,13.4 84.8,13.6 84.9,13.6 84.9,13.7 85,13.6 85,13.5 85.1,13.6 85.1,13.8 85.1,14 85.2,13.9 85.3,13.8 85.3,14 85.3,14.1 85.4,14 85.5,13.9 85.5,13.6 85.6,13.1 85.6,12.5 85.6,12.1 85.7,12 85.7,11.7 85.8,11.2 85.8,10.5 85.8,9.8 85.9,9.3 85.9,8.6 86,7.8 86,6.6 86,5.9 86.1,6 86.1,6.5 86.1,7.5 86.2,9.1 86.2,11.3 86.3,12.8 86.3,13.6 86.3,13.8 86.4,13.8 86.4,13.9 86.5,14 86.5,14.3 86.5,14.4 86.6,14.3 86.7,14.3 86.7,14.4 86.8,14.3 86.8,14.4 86.9,14.5 86.9,14.7 87,14.5 87,14.3 87.1,14.3 87.2,14.3 87.2,14.5 87.2,14.4 87.3,14.4 87.3,14.3 87.4,14.2 87.4,14.3 87.5,14.3 87.5,14.2 87.6,14.1 87.7,14 87.7,14.1 87.8,14 87.8,13.9 87.9,13.8 88,13.6 88.1,13.5 88.1,13.3 88.1,13.2 88.2,13.1 88.2,13 88.3,12.9 88.3,12.8 88.4,12.6 88.5,12.5 88.5,12.4 88.6,12.4 88.7,12.3 88.8,12.4 88.8,12.5 88.9,12.6 88.9,12.7 89,12.7 89,12.8 89.1,12.9 89.1,13 89.2,13.1 89.2,13.2 89.3,13.2 89.3,13.3 89.3,13.5 89.4,13.5 89.4,13.4 89.5,13.5 89.5,13.7 89.5,13.6 89.6,13.6 89.6,13.7 89.6,13.6 89.7,13.6 89.7,13.8 89.8,13.8 89.8,13.7 89.8,13.8 89.9,13.8 89.9,13.7 90,13.7 90,13.6 90.1,13.6 90.2,13.6 90.2,13.7 90.3,13.6 90.4,13.6 90.4,13.7 90.4,13.8 90.5,13.7 90.5,13.6 90.5,13.7 90.6,13.7 90.7,13.7 90.7,13.8 90.8,13.9 90.8,13.7 90.9,13.6 91,13.7 91.1,13.7 91.2,13.9 91.3,13.9 91.4,13.9 91.4,13.8 91.4,13.9 91.5,13.9 91.5,13.8 91.6,13.9 91.6,14 91.6,13.9 91.7,13.8 91.8,13.9 91.8,13.8 91.9,13.9 92,14 92,13.9 92.1,13.8 92.1,13.7 92.1,13.8 92.2,13.8 92.3,13.8 92.3,13.9 92.4,13.9 92.4,14 92.5,14 92.5,13.9 92.6,14 92.6,13.9 92.7,13.8 92.7,13.7 92.8,13.6 92.8,13.5 92.8,13.4 92.9,13.4 92.9,13.3 93,13.2 93,13.3 93,13.4 93.1,13.4 93.1,13.3 93.2,13.3 93.2,13.4 93.2,13.5 93.3,13.6 93.3,13.7 93.3,13.8 93.4,13.8 93.4,13.7 93.5,13.7 93.5,13.6 93.5,13.7 93.6,13.8 93.6,14 93.7,14 93.7,13.9 93.7,13.8 93.8,13.7 93.8,13.9 93.9,13.9 93.9,14 94,13.9 94,13.7 94,13.3 94.1,12.8 94.1,12.3 94.2,11.9 94.2,11.5 94.2,11.1 94.3,10.5 94.3,9.8 94.4,9.1 94.4,8.6 94.4,7.8 94.5,6.7 94.5,5.6 94.6,5.4 94.6,5.6 94.6,6.2 94.7,7.4 94.7,9.6 94.7,11.8 94.8,12.9 94.8,13.4 94.9,13.7 94.9,13.8 94.9,14 95,14.1 95,14.2 95.1,14.3 95.1,14.4 95.1,14.3 95.2,14.3 95.2,14.5 95.3,14.6 95.3,14.5 95.3,14.6 95.4,14.6 95.4,14.3 95.4,14.2 95.5,14.3 95.6,14.3 95.6,14.2 95.7,14.3 95.8,14.3 95.8,14.2 95.9,14.3 96,14.2 96.1,14.2 96.1,14.1 96.2,13.9 96.3,13.9 96.3,13.8 96.4,13.7 96.5,13.6 96.5,13.5 96.5,13.4 96.6,13.2 96.7,13.1 96.7,13 96.8,12.9 96.8,12.8 96.8,12.6 96.9,12.4 97,12.3 97,12.2 97,12.1 97.1,12 97.2,12.3 97.2,12.2 97.2,12.1 97.3,12.2 97.4,12.2 97.4,12.1 97.4,12.3 97.5,12.4 97.5,12.5 97.5,12.6 97.6,12.6 97.6,12.8 97.7,13 97.8,13.1 97.8,13.2 97.9,13.3 98,13.4 98,13.5 98.1,13.6 98.1,13.7 98.2,13.8 98.2,13.6 98.2,13.5 98.3,13.5 98.4,13.6 98.4,13.5 98.4,13.6 98.5,13.6 98.6,13.6 98.6,13.7 98.7,13.7 98.8,13.7 98.8,13.9 98.9,13.9 98.9,14 99,14 99.1,14 99.1,14.1 99.2,14.2 99.2,14 99.3,13.9 99.3,14.1 99.4,14 99.4,13.9 99.5,14 99.6,14 99.6,14.1 99.7,14.1 99.8,14.1 99.8,14 99.9,14 100,14 100.1,14.1 100.2,14 100.3,14 100.3,14.1 100.4,14.1 100.4,14 100.5,14.2 100.5,14.1 100.5,14 100.6,14 100.6,14.1 100.7,14.1 100.7,14.2 100.8,14.2 100.8,14.3 100.9,14.1 100.9,14 100.9,14.1 101,14.2 101.1,14.1 101.1,14 101.1,13.9 101.2,13.7 101.2,13.6 101.2,13.7 101.3,13.7 101.3,13.4 101.4,13.4 101.4,13.3 101.4,13.5 101.5,13.6 101.6,13.5 101.6,13.8 101.7,13.9 101.7,13.8 101.8,13.8 101.9,13.9 102,14 102.1,14 102.1,14.1 102.2,14.1 102.2,14.2 102.3,14.2 102.3,14.1 102.3,14 102.4,13.9 102.4,13.7 102.5,13.4 102.5,13 102.5,12.5 102.6,12.2 102.6,11.6 102.6,11.1 102.7,10.7 102.7,10.2 102.8,9.6 102.8,9 102.8,8.1 102.9,7 102.9,5.8 103,5.4 103,5.7 103,6.3 103.1,7.5 103.1,9.6 103.2,11.8 103.2,13.1 103.2,13.6 103.3,13.9 103.3,14 103.3,14.1 103.4,14.2 103.5,14.3 103.5,14.4 103.5,14.5 103.6,14.4 103.6,14.5 103.7,14.6 103.7,14.4 103.8,14.4 103.8,14.5 103.9,14.4 103.9,14.6 104,14.6 104,14.5 104,14.4 104.1,14.4 104.2,14.4 104.3,14.3 104.4,14.2 104.4,14.1 104.5,14.1 104.5,14 104.6,14.1 104.6,14.2 104.6,14.1 104.7,13.9 104.7,13.8 104.7,13.7 104.8,13.7 104.8,13.8 104.9,13.6 104.9,13.4 104.9,13.3 105,13.3 105.1,13.3 105.1,13.2 105.1,12.8 105.2,12.5 105.3,12.4 105.3,12.2 105.4,12.2 105.4,12.1 105.5,11.9 105.6,11.8 105.6,11.9 105.6,12 105.7,12.1 105.7,12.2 105.8,12.2 105.8,12.1 105.9,12.1 105.9,12.2 106,12.3 106.1,12.4 106.1,12.5 106.2,12.5 106.2,12.6 106.3,12.6 106.3,12.7 106.3,12.8 106.4,12.8 106.4,13 106.5,13 106.5,12.9 106.6,12.8 106.7,12.9 106.7,13 106.7,12.9 106.8,13 106.8,12.9 106.8,13 106.9,13 106.9,12.9 107,13 107,13.1 107.1,13 107.1,12.9 107.2,13 107.2,12.9 107.3,12.9 107.3,13.1 107.4,13.2 107.4,13.1 107.5,13 107.5,12.9 107.5,13.1 107.6,13.3 107.7,13.1 107.8,13.2 107.8,13.3 107.9,13.3 107.9,13.2 108,13.1 108.1,13.3 108.1,13.4 108.1,13.2 108.2,13.2 108.3,13.2 108.3,13.3 108.4,13.3 108.4,13.2 108.5,13.2 108.6,13.3 108.6,13.2 108.7,13.3 108.7,13.4 108.8,13.2 108.8,13.1 108.8,13.2 108.9,13.3 108.9,13.2 109,13.2 109.1,13.1 109.1,13.2 109.1,13.3 109.2,13.3 109.3,13.2 109.3,13.1 109.3,13 109.4,13.1 109.4,13.2 109.5,13.1 109.6,13 109.6,12.8 109.6,12.7 109.7,12.9 109.7,12.8 109.8,12.7 109.9,12.7 109.9,12.8 110,12.7 110,12.6 110,12.7 110.1,12.9 110.2,13.1 110.3,13 110.4,13.2 110.4,13.1 110.5,13.2 110.5,13.4 110.5,13.2 110.6,13.2 110.6,13.3 110.7,13.4 110.8,13.3 110.8,13.2 110.9,12.8 110.9,12.5 110.9,12.1 111,11.6 111,11.3 111.1,10.9 111.1,10.5 111.1,10 111.2,9.3 111.2,8.7 111.2,8.1 111.3,7.4 111.3,6.5 111.4,5.5 111.4,5 111.4,5.2 111.5,5.9 111.5,6.9 111.6,8.9 111.6,11.1 111.6,12.4 111.7,12.8 111.7,12.9 111.8,13 111.8,13.2 111.8,13.4 111.9,13.6 111.9,13.5 112,13.6 112,13.5 112.1,13.5 112.1,13.6 112.2,13.8 112.3,13.7 112.3,13.6 112.3,13.5 112.4,13.5 112.4,13.4 112.5,13.4 112.5,13.5 112.6,13.5 112.7,13.5 112.7,13.4 112.8,13.3 112.8,13.5 112.8,13.7 112.9,13.5 112.9,13.2 113,13.2 113,13.1 113.1,13.1 113.1,13 113.2,13.1 113.2,13 113.3,13 113.3,12.8 113.3,12.6 113.4,12.6 113.4,12.4 113.5,12.4 113.5,12.5 113.5,12.4 113.6,12.2 113.6,12.1 113.7,12 113.7,11.9 113.7,12 113.8,11.9 113.8,11.7 113.9,11.6 114,11.6 114,11.7 114.1,11.7 114.1,11.8 114.2,11.7 114.2,11.8 114.3,11.8 114.4,11.9 114.4,12.1 114.4,12.3 114.5,12.4 114.6,12.5 114.6,12.7 114.6,12.9 114.7,13 114.7,13.1 114.7,13.3 114.8,13.2 114.9,13.3 114.9,13.5 115,13.4 115.1,13.3 115.1,13.1 115.2,13.1 115.3,13.1 115.3,13 115.3,12.9 115.4,12.9 115.4,12.8 115.5,12.8 115.6,12.7 115.6,12.9 115.7,12.9 115.8,13 115.9,13 116,13 116,13.1 116.1,13.2 116.1,13.3 116.2,13.2 116.2,13.3 116.3,13.4 116.4,13.4 116.4,13.5 116.5,13.4 116.6,13.4 116.6,13.5 116.7,13.6 116.7,13.7 116.8,13.6 116.8,13.7 116.9,13.7 117,13.6 117.1,13.6 117.1,13.7 117.2,13.7 117.2,13.8 117.3,13.9 117.3,13.8 117.4,13.7 117.5,13.8 117.6,13.7 117.6,13.8 117.7,13.8 117.8,13.8 117.8,13.7 117.9,13.6 117.9,13.7 117.9,13.5 118,13.5 118.1,13.4 118.2,13.2 118.2,13.1 118.2,13.2 118.3,13.4 118.4,13.4 118.4,13.1 118.4,13 118.5,13.2 118.5,13.6 118.6,13.7 118.6,13.6 118.6,13.8 118.7,13.7 118.7,13.6 118.8,13.6 118.8,13.7 118.8,13.8 118.9,13.8 118.9,13.9 119,13.9 119,14 119.1,14 119.1,13.9 119.2,13.9 119.2,13.8 119.3,13.5 119.3,13.2 119.3,12.8 119.4,12.6 119.4,12.2 119.5,11.8 119.5,11.7 119.5,11.4 119.6,10.5 119.6,9.7 119.6,9.3 119.7,8.5 119.7,7.6 119.8,6.5 119.8,5.9 119.8,6.1 119.9,6.8 119.9,7.8 120,9.6 120,11.8 120,13.1 120.1,13.7 120.1,14 120.2,14.1 120.2,14.3 120.2,14.4 120.3,14.5 120.4,14.5 120.4,14.6 120.5,14.6 120.5,14.7 120.6,14.6 120.6,14.5 120.7,14.5 120.7,14.6 120.7,14.5 120.8,14.5 120.8,14.6 120.9,14.5 120.9,14.4 120.9,14.3 121,14.4 121.1,14.4 121.2,14.4 121.2,14.5 121.3,14.4 121.4,14.4 121.4,14.3 121.5,14.4 121.5,14.3 121.6,14.2 121.6,14.1 121.7,14 121.7,13.8 121.8,13.7 121.8,13.6 121.9,13.5 121.9,13.3 121.9,13.1 122,13 122.1,12.9 122.1,12.7 122.1,12.6 122.2,12.7 122.2,12.6 122.3,12.5 122.4,12.5 122.5,12.5 122.6,12.5 122.6,12.4 122.7,12.5 122.7,12.6 122.8,12.7 122.8,13 122.9,13.1 123,13.2 123.1,13.3 123.1,13.4 123.2,13.5 123.3,13.6 123.4,13.6 123.4,13.7 123.5,13.8 123.5,13.7 123.5,13.6 123.6,13.7 123.6,13.6 123.7,13.5 123.7,13.6 123.8,13.6 123.8,13.7 123.9,13.6 123.9,13.5 124,13.6 124.1,13.5 124.2,13.6 124.2,13.5 124.3,13.5 124.4,13.5 124.4,13.6 124.4,13.7 124.5,13.6 124.6,13.6 124.6,13.8 124.7,13.7 124.7,13.8 124.8,13.8 124.8,13.9 124.9,13.8 124.9,13.7 125,13.8 125.1,13.9 125.1,13.8 125.2,13.8 125.3,13.7 125.3,13.6 125.4,13.6 125.4,13.8 125.5,13.7 125.6,13.8 125.6,13.7 125.7,13.7 125.7,13.6 125.8,13.6 125.8,13.8 125.8,13.9 125.9,13.9 126,13.9 126,13.8 126.1,13.6 126.1,13.5 126.1,13.4 126.2,13.3 126.2,13.2 126.3,13.2 126.4,13.2 126.4,13.1 126.5,13 126.5,13.1 126.6,13 126.7,13.1 126.7,13.2 126.7,13.3 126.8,13.3 126.8,13.2 126.9,13.4 126.9,13.6 127,13.4 127,13.3 127,13.4 127.1,13.6 127.2,13.7 127.2,13.8 127.2,13.9 127.3,13.9 127.4,13.9 127.4,13.8 127.5,13.4 127.5,13 127.5,12.7 127.6,12.5 127.6,12.3 127.7,11.9 127.7,11.5 127.7,11 127.8,10.6 127.8,10 127.9,9 127.9,7.9 127.9,6.7 128,5.4 128,5.2 128.1,5.6 128.1,6.7 128.1,8.3 128.2,10.7 128.2,12.8 128.2,13.8 128.3,14.2 128.4,14.3 128.4,14.6 128.5,14.7 128.5,14.6 128.6,14.6 128.6,14.8 128.7,14.7 128.8,14.8 128.8,14.6 128.8,14.4 128.9,14.5 128.9,14.6 129,14.6 129,14.5 129.1,14.6 129.1,14.5 129.1,14.3 129.2,14.3 129.3,14.3 129.3,14.4 129.4,14.3 129.5,14.3 129.5,14.4 129.5,14.2 129.6,14.1 129.6,14 129.7,13.8 129.8,13.8 129.8,13.7 129.9,13.8 130,13.6 130,13.5 130.1,13.3 130.1,13.1 130.2,13 130.3,12.8 130.3,12.5 130.4,12.5 130.4,12.4 130.5,12.3 130.5,12.5 130.6,12.5 130.6,12.7 130.7,12.5 130.7,12.3 130.8,12.3 130.8,12.6 130.9,12.7 130.9,12.6 130.9,12.7 131,12.8 131,12.7 131.1,12.6 131.1,12.7 131.1,12.8 131.2,13 131.3,13.1 131.3,13.3 131.4,13.3 131.4,13.2 131.4,13.1 131.5,13.3 131.6,13.3 131.7,13.2 131.8,13.4 131.8,13.5 131.8,13.6 131.9,13.4 131.9,13.2 131.9,13.1 132,13.2 132,13.3 132.1,13.1 132.1,13.4 132.2,13.4 132.2,13.2 132.3,13 132.3,13.1 132.4,13.1 132.5,13.1 132.5,13.2 132.5,13.1 132.6,13.2 132.6,13.3 132.7,13.3 132.7,13.2 132.8,13 132.8,13.2 132.8,13.4 132.9,13.4 132.9,13.3 133,13.4 133,13.3 133,13.1 133.1,13.3 133.2,13.3 133.2,13.4 133.3,13.2 133.3,13.1 133.4,13.3 133.4,13.4 133.5,13.3 133.5,13 133.6,13.1 133.6,13.2 133.7,13.3 133.8,13.3 133.8,13.4 133.9,13.4 133.9,13.1 133.9,12.9 134,13 134,13.1 134.1,13.1 134.2,13.1 134.2,13.2 134.2,13 134.3,13.1 134.4,13.1 134.4,13 134.4,12.9 134.5,12.7 134.5,12.6 134.6,12.8 134.6,12.9 134.6,12.8 134.7,12.6 134.7,12.5 134.8,12.6 134.8,12.5 134.9,12.4 134.9,12.5 134.9,12.6 135,12.8 135,13.1 135.1,13.1 135.1,13 135.1,12.9 135.2,12.9 135.3,12.8 135.3,12.9 135.3,13 135.4,13.1 135.4,13.2 135.5,13.4 135.5,13.5 135.6,13.1 135.6,12.9 135.7,12.8 135.7,12.6 135.8,12.3 135.8,11.8 135.8,11.5 135.9,11 135.9,10.4 136,10.1 136,9.4 136,8.7 136.1,8.4 136.1,7.6 136.1,6.7 136.2,5.6 136.2,4.6 136.3,4.5 136.3,4.8 136.3,5.3 136.4,6.7 136.4,8.9 136.5,11.1 136.5,12.2 136.5,12.6 136.6,12.9 136.7,12.9 136.7,13.2 136.7,13.3 136.8,13.5 136.8,13.6 136.8,13.7 136.9,13.5 137,13.6 137,13.7 137.1,13.7 137.1,13.6 137.2,13.5 137.3,13.4 137.3,13.5 137.4,13.7 137.4,13.9 137.4,13.8 137.5,13.7 137.5,13.6 137.5,13.5 137.6,13.4 137.6,13.5 137.7,13.6 137.7,13.5 137.8,13.3 137.8,13.4 137.9,13.5 137.9,13.4 137.9,13.3 138,13.2 138,13.3 138.1,13.1 138.2,12.9 138.3,12.7 138.3,12.5 138.4,12.4 138.4,12.3 138.4,12.2 138.5,12 138.5,11.8 138.6,11.6 138.6,11.5 138.7,11.5 138.7,11.3 138.8,11.4 138.9,11.3 138.9,11.4 139,11.3 139.1,11.3 139.1,11.4 139.1,11.3 139.2,11.4 139.3,11.4 139.3,11.5 139.3,11.6 139.4,11.6 139.4,11.9 139.5,12 139.6,12 139.6,12.2 139.6,12.4 139.7,12.4 139.7,12.2 139.8,12 139.8,12.2 139.9,12.5 139.9,12.3 140,12.3 140,12.2 140.1,12.3 140.2,12.4 140.3,12.4 140.3,12.5 140.4,12.6 140.4,12.5 140.4,12.4 140.5,12.3 140.6,12.4 140.6,12.5 140.7,12.5 140.7,12.4 140.7,12.3 140.8,12.3 140.8,12.6 140.9,12.5 140.9,12.3 140.9,12.2 141,12.2 141,12.4 141.1,12.4 141.1,12.2 141.1,12.1 141.2,12.3 141.2,12.4 141.2,12.5 141.3,12.4 141.3,12.3 141.4,12.5 141.5,12.7 141.6,12.9 141.7,12.9 141.8,12.9 141.8,12.8 141.8,12.9 141.9,13 141.9,13.1 142,13.1 142,13.3 142.1,13.3 142.1,13.2 142.2,13 142.2,13.1 142.3,13 142.3,13.1 142.3,13.2 142.4,13.2 142.4,13.1 142.5,13.1 142.5,13.2 142.6,13.2 142.6,13.1 142.7,12.9 142.7,12.8 142.8,12.8 142.8,12.9 142.9,12.9 142.9,12.6 143,12.7 143,12.9 143.1,12.8 143.1,12.7 143.2,12.7 143.2,12.8 143.2,13 143.3,13.2 143.4,13.1 143.5,13.2 143.5,13.4 143.6,13.3 143.6,13.4 143.7,13.4 143.7,13.5 143.8,13.5 143.8,13.6 143.9,13.6 143.9,13.5 143.9,13.3 144,13.2 144,12.9 144,12.5 144.1,12 144.1,11.6 144.2,11.3 144.2,10.9 144.2,10.5 144.3,9.9 144.3,9.3 144.4,8.7 144.4,7.9 144.4,7.1 144.5,6 144.5,5.2 144.6,5.4 144.6,6.3 144.6,7.5 144.7,9.4 144.7,11.6 144.7,12.9 144.8,13.4 144.8,13.6 144.9,13.6 144.9,13.5 144.9,13.8 145,14.1 145,14.2 145.1,14.1 145.1,14.3 145.2,14.2 145.2,14.3 145.3,14.3 145.4,14.2 145.5,14.3 145.5,14.1 145.6,14.1 145.6,14.3 145.7,14.2 145.7,14.1 145.8,14.1 145.8,14.3 145.9,14.2 145.9,14.1 146,14.2 146,14.3 146,14.2 146.1,14 146.1,14.1 146.2,13.9 146.3,13.8 146.3,13.9 146.4,13.8 146.4,13.6 146.5,13.4 146.5,13.3 146.6,13.4 146.6,13.3 146.7,13 146.7,12.9 146.7,12.8 146.8,12.6 146.8,12.5 146.8,12.4 146.9,12.3 147,12.4 147,12.3 147,12.2 147.1,12.2 147.1,12 147.2,12.2 147.2,12.3 147.3,12.3 147.4,12.5 147.4,12.6 147.5,12.7 147.5,12.9 147.6,13.1 147.6,13.2 147.7,13.2 147.7,13.4 147.8,13.5 147.8,13.6 147.9,13.6 147.9,13.7 147.9,13.8 148,13.9 148.1,14 148.1,13.9 148.2,13.9 148.2,13.8 148.3,13.9 148.3,14.1 148.4,14.2 148.4,14.1 148.5,14.1 148.5,14 148.6,14.1 148.6,14 148.6,14.1 148.7,14.1 148.7,14 148.8,14.1 148.9,14.1 148.9,14 148.9,13.9 149,14.1 149,14.2 149.1,14.1 149.1,14.3 149.2,14.2 149.2,14.3 149.3,14.4 149.3,14.1 149.4,13.9 149.4,14.1 149.5,14.2 149.6,14.3 149.6,14.4 149.6,14.5 149.7,14.7 149.7,14.4 149.8,14.2 149.8,14.1 149.8,14.2 149.9,14.3 150,14.2 150.1,14.4 150.2,14.5 150.2,14.4 150.2,14.2 150.3,14.3 150.3,14.6 150.4,14.6 150.4,14.4 150.4,14.5 150.5,14.5 150.6,14.3 150.7,14.2 150.7,14 150.8,14 150.9,13.8 150.9,13.6 150.9,13.4 151,13.4 151,13.5 151.1,13.6 151.1,13.5 151.2,13.5 151.2,13.3 151.3,13.5 151.3,13.7 151.4,13.8 151.4,13.7 151.5,13.7 151.5,13.8 151.6,13.8 151.6,13.7 151.6,13.6 151.7,13.7 151.7,14.2 151.8,14.4 151.8,14.2 151.8,14.1 151.9,14.2 151.9,14.1 151.9,13.8 152,13.9 152.1,13.8 152.1,13.5 152.1,13.2 152.2,12.7 152.2,12.2 152.3,11.8 152.3,11.4 152.3,10.9 152.4,10.2 152.4,9.5 152.5,8.9 152.5,8.3 152.5,7.2 152.6,5.6 152.6,4.6 152.6,4.5 152.7,5.1 152.7,6.1 152.8,7.6 152.8,10.1 152.8,12 152.9,13.1 152.9,13.6 153,13.8 153,14.1 153,14.4 153.1,14.4 153.1,14.5 153.2,14.6 153.2,14.7 153.2,14.6 153.3,14.7 153.3,14.9 153.4,14.9 153.5,14.9 153.5,15 153.5,15.1 153.6,15.1 153.6,14.9 153.7,14.7 153.7,14.6 153.8,14.5 153.8,14.4 153.9,14.4 154,14.4 154,14.5 154.1,14.5 154.1,14.4 154.2,14.5 154.2,14.4 154.3,14.3 154.4,14.2 154.4,14.1 154.5,14.2 154.5,14.1 154.6,13.9 154.7,13.9 154.7,13.7 154.7,13.5 154.8,13.4 154.8,13.2 154.9,12.9 154.9,13 154.9,13.1 155,13 155.1,12.8 155.1,12.7 155.2,12.8 155.2,12.7 155.3,12.7 155.3,12.6 155.4,12.8 155.4,12.9 155.5,13 155.5,13.1 155.6,13.2 155.6,13.3 155.7,13.3 155.7,13.2 155.8,13.2 155.8,13.4 155.9,13.5 155.9,13.6 156,13.6 156,13.5 156,13.6 156.1,13.7 156.1,13.9 156.1,14 156.2,13.9 156.2,13.7 156.3,13.7 156.3,13.9 156.3,13.8 156.4,13.9 156.5,13.9 156.5,13.7 156.5,13.5 156.6,13.7 156.7,13.6 156.7,13.7 156.7,13.6 156.8,13.7 156.8,13.8 156.8,13.6 156.9,13.8 156.9,13.7 157,13.4 157,13.5 157.1,13.6 157.1,13.7 157.2,13.8 157.2,13.7 157.3,13.9 157.3,13.8 157.4,13.8 157.4,13.6 157.4,13.4 157.5,13.4 157.5,13.5 157.5,13.4 157.6,13.6 157.6,13.9 157.7,13.7 157.7,13.5 157.7,13.6 157.8,13.7 157.9,13.7 157.9,13.6 158,13.7 158,13.8 158.1,13.7 158.2,13.7 158.2,13.6 158.3,13.5 158.3,13.4 158.4,13.6 158.4,13.4 158.4,13.5 158.5,13.6 158.5,13.4 158.6,13.4 158.6,13.7 158.7,13.4 158.7,13.3 158.8,13.4 158.8,13.5 158.9,13.5 158.9,13.3 158.9,13.2 159,13.3 159,13.1 159.1,13 159.1,13.1 159.1,13 159.2,13 159.2,13.1 159.3,12.9 159.3,13.1 159.3,13.3 159.4,13.4 159.4,13.3 159.5,13.3 159.5,13.6 159.6,13.7 159.6,13.8 159.6,13.7 159.7,13.9 159.7,13.8 159.8,13.8 159.8,13.9 159.9,14 160,13.9 160,14 160.1,13.8 160.1,14 160.2,14.1 160.2,13.5 160.2,13.2 160.3,13 160.3,12.7 160.4,12.2 160.4,11.7 160.4,11.4 160.5,11 160.5,10.6 160.5,9.8 160.6,9 160.6,8.4 160.7,7.7 160.7,6.8 160.7,5.7 160.8,5.6 160.8,6 160.9,6.7 160.9,7.6 160.9,9.4 161,11.6 161,13 161.1,13.4 161.1,13.8 161.2,14 161.2,14.2 161.3,14.2 161.3,14.3 161.4,14.4 161.4,14.3 161.4,14.5 161.5,14.3 161.5,14.2 161.6,14.4 161.7,14.2 161.7,14.3 161.8,14.3 161.8,14.5 161.9,14.6 161.9,14.5 161.9,14.2 162,14.2 162,14.3 162.1,14.3 162.1,14.2 162.1,14 162.2,14 162.2,14.1 162.3,14.2 162.3,14.1 162.3,14 162.4,14 162.4,14.1 162.5,14.1 162.5,13.9 162.5,13.8 162.6,13.9 162.6,13.8 162.6,13.5 162.7,13.4 162.7,13.3 162.8,13.2 162.8,12.9 162.8,13 162.9,12.9 162.9,12.8 163,12.7 163,12.6 163.1,12.3 163.2,12.3 163.2,12.1 163.2,12.2 163.3,12.1 163.3,12 163.3,11.9 163.4,12 163.4,12.1 163.5,11.9 163.5,11.7 163.5,11.9 163.6,12.2 163.6,12.1 163.7,12 163.7,12.2 163.7,12.3 163.8,12.6 163.8,12.5 163.9,12.5 163.9,12.7 164,13 164,12.9 164,12.8 164.1,13.1 164.1,13 164.2,13 164.2,13.1 164.3,13.1 164.3,13.2 164.4,13.3 164.4,13.2 164.4,13.4 164.5,13.7 164.5,13.3 164.6,13.1 164.6,13 164.7,13.1 164.7,12.8 164.8,12.8 164.8,13.1 164.9,13.1 165,13.1 165,13 165.1,13.1 165.1,13.4 165.1,13.3 165.2,13.2 165.2,13.3 165.3,13.3 165.3,13.5 165.3,13.4 165.4,13.5 165.4,13.6 165.4,13.5 165.5,13.4 165.6,13.6 165.6,13.5 165.6,13.6 165.7,13.8 165.8,13.7 165.8,13.8 165.9,13.9 165.9,14 166,14 166,13.9 166,14 166.1,14 166.1,13.8 166.2,13.9 166.2,14 166.3,13.9 166.3,13.8 166.4,13.9 166.4,14.1 166.5,14.1 166.5,14.2 166.5,14.1 166.6,14.2 166.6,14.3 166.7,14.2 166.7,14.3 166.8,14.4 166.9,14.3 166.9,14.1 167,14.1 167,14 167,13.9 167.1,13.9 167.1,13.8 167.2,13.8 167.2,13.9 167.3,13.9 167.4,13.9 167.4,13.8 167.5,13.6 167.5,13.7 167.5,13.9 167.6,14.1 167.6,14.3 167.7,14.3 167.7,14.4 167.8,14.3 167.9,14.3 167.9,14.4 168,14.5 168,14.6 168.1,14.6 168.1,14.7 168.1,14.5 168.2,14.5 168.2,14.4 168.3,14.4 168.3,14.2 168.4,13.8 168.4,13.4 168.4,12.9 168.5,12.5 168.5,12.1 168.6,11.9 168.6,11.4 168.6,10.7 168.7,10.1 168.7,9 168.8,7.6 168.8,6.2 168.8,5.4 168.9,5.2 168.9,5.7 168.9,6.9 169,8.6 169,11.2 169.1,13 169.1,13.8 169.1,13.9 169.2,14.1 169.2,14.3 169.3,14.6 169.3,14.8 169.4,14.8 169.5,14.8 169.5,14.7 169.6,14.8 169.6,15 169.6,15.1 169.7,15.1 169.7,15 169.8,15.1 169.8,15.2 169.9,15.1 169.9,15 170,15.1 170,15.2 170.1,15.3 170.2,15.3 170.2,15 170.3,15 170.3,15.1 170.4,15.1 170.4,15.3 170.5,15.1 170.5,14.9 170.5,15 170.6,15.1 170.7,15 170.8,14.9 170.9,15 171,15 171,14.9 171.1,15 171.1,14.8 171.1,14.6 171.2,14.6 171.2,14.5 171.3,14.4 171.4,14.5 171.4,14.4 171.5,14.4 171.5,14.3 171.6,14.3 171.7,14.2 171.7,14.3 171.8,14.4 171.8,14.5 171.8,14.6 171.9,14.6 171.9,14.5 172,14.7 172,14.8 172.1,14.8 172.1,14.9 172.2,15 172.3,15 172.3,15.1 172.4,15.1 172.5,15.1 172.5,15 172.6,15.1 172.6,15 172.7,14.9 172.7,14.8 172.8,14.8 172.8,14.9 172.9,14.9 172.9,14.8 173,14.8 173,14.7 173,14.8 173.1,15 173.1,14.9 173.2,14.7 173.2,14.9 173.3,14.9 173.3,14.8 173.4,14.9 173.5,14.8 173.6,14.9 173.6,15 173.7,15 173.7,14.9 173.8,14.9 173.8,15 173.9,15 174,15.1 174,15.2 174.1,15.2 174.2,15.2 174.2,15.1 174.2,15 174.3,14.9 174.3,15 174.4,15.2 174.4,15.1 174.4,15.2 174.5,15.3 174.5,15.2 174.6,15 174.7,14.9 174.7,15 174.7,15.1 174.8,15 174.8,15.1 174.9,14.9 174.9,14.6 175,14.5 175.1,14.5 175.1,14.4 175.1,14.3 175.2,14.3 175.2,14.2 175.3,14.2 175.3,14.1 175.4,14.1 175.4,14 175.5,14.2 175.5,14.3 175.6,14.5 175.6,14.6 175.6,14.7 175.7,14.7 175.7,14.5 175.8,14.5 175.8,14.6 175.9,14.6 176,14.7 176,14.8 176,14.9 176.1,14.9 176.1,14.7 176.2,14.6 176.2,14.5 176.3,14.3 176.3,14 176.3,13.5 176.4,13 176.4,12.5 176.5,12 176.5,11.6 176.5,11.4 176.6,10.8 176.6,10.2 176.7,9.4 176.7,8.5 176.7,7.5 176.8,6.3 176.8,5.4 176.8,5.5 176.9,5.8 176.9,6.9 177,8.6 177,11 177,12.8 177.1,13.7 177.1,14.1 177.2,14.2 177.2,14.4 177.2,14.6 177.3,14.9 177.3,15.2 177.4,15.2 177.4,15.1 177.4,15.2 177.5,15.4 177.5,15.5 177.5,15.4 177.6,15.4 177.7,15.3 177.7,15.2 177.8,15.1 177.8,15 177.9,15 177.9,14.9 177.9,14.6 178,14.6 178.1,14.5 178.1,14.6 178.1,14.5 178.2,14.5 178.2,14.6 178.3,14.5 178.3,14.3 178.4,14.4 178.4,14.3 178.5,14.2 178.6,14.2 178.7,14 178.7,13.9 178.8,13.9 178.8,13.8 178.8,13.7 178.9,13.6 178.9,13.5 178.9,13.2 179,13.1 179.1,12.9 179.1,12.7 179.1,12.5 179.2,12.7 179.2,12.6 179.3,12.3 179.3,12.2 179.3,12.1 179.4,12.1 179.5,12.1 179.5,12.2 179.6,12.3 179.6,12.4 179.7,12.3 179.8,12.4 179.8,12.5 179.8,12.6 179.9,12.7 179.9,12.8 180,12.8 " />
  </g>
  <g id="ChNames" style="font-family:Arial, sans-serif; font-size:12px; fill:#808080;">
    <text x="7.6" y="12">II</text>
  </g>
</svg>