<?xml version="1.0" encoding="utf-8" standalone="no"?>
<svg version="1.1" shape-rendering="geometricPrecision" width="306.141732283465" height="907.086614173228" viewBox="0 0 306.141732283465 907.086614173228" xmlns="http://www.w3.org/2000/svg">
  <g id="Grid" transform="translate(0 0) scale(3.77952755905512)">
    <path id="MajorGrid" d=" M 0 0 H 40 M 0 10 H 40 M 0 20 H 40 M 0 30 H 40 M 0 40 H 40 M 0 50 H 40 M 0 60 H 40 M 0 70 H 40 M 0 80 H 40 M 0 90 H 40 M 0 100 H 40 M 0 110 H 40 M 0 120 H 40 M 0 130 H 40 M 0 140 H 40 M 0 150 H 40 M 0 160 H 40 M 0 170 H 40 M 0 180 H 40 M 0 190 H 40 M 0 200 H 40 M 0 210 H 40 M 0 220 H 40 M 0 230 H 40 M 0 240 H 40M 0 0 V 240M 10 0 V 240M 20 0 V 240M 30 0 V 240M 40 0 V 240" style="fill:none;stroke:#f4c5bd;stroke-width:0.3;stroke-linecap:round;stroke-linejoin:round" />
    <path id="MinorGrid" d=" M 0 1 H 40 M 0 2 H 40 M 0 3 H 40 M 0 4 H 40 M 0 5 H 40 M 0 6 H 40 M 0 7 H 40 M 0 8 H 40 M 0 9 H 40 M 0 11 H 40 M 0 12 H 40 M 0 13 H 40 M 0 14 H 40 M 0 15 H 40 M 0 16 H 40 M 0 17 H 40 M 0 18 H 40 M 0 19 H 40 M 0 21 H 40 M 0 22 H 40 M 0 23 H 40 M 0 24 H 40 M 0 25 H 40 M 0 26 H 40 M 0 27 H 40 M 0 28 H 40 M 0 29 H 40 M 0 31 H 40 M 0 32 H 40 M 0 33 H 40 M 0 34 H 40 M 0 35 H 40 M 0 36 H 40 M 0 37 H 40 M 0 38 H 40 M 0 39 H 40 M 0 41 H 40 M 0 42 H 40 M 0 43 H 40 M 0 44 H 40 M 0 45 H 40 M 0 46 H 40 M 0 47 H 40 M 0 48 H 40 M 0 49 H 40 M 0 51 H 40 M 0 52 H 40 M 0 53 H 40 M 0 54 H 40 M 0 55 H 40 M 0 56 H 40 M 0 57 H 40 M 0 58 H 40 M 0 59 H 40 M 0 61 H 40 M 0 62 H 40 M 0 63 H 40 M 0 64 H 40 M 0 65 H 40 M 0 66 H 40 M 0 67 H 40 M 0 68 H 40 M 0 69 H 40 M 0 71 H 40 M 0 72 H 40 M 0 73 H 40 M 0 74 H 40 M 0 75 H 40 M 0 76 H 40 M 0 77 H 40 M 0 78 H 40 M 0 79 H 40 M 0 81 H 40 M 0 82 H 40 M 0 83 H 40 M 0 84 H 40 M 0 85 H 40 M 0 86 H 40 M 0 87 H 40 M 0 88 H 40 M 0 89 H 40 M 0 91 H 40 M 0 92 H 40 M 0 93 H 40 M 0 94 H 40 M 0 95 H 40 M 0 96 H 40 M 0 97 H 40 M 0 98 H 40 M 0 99 H 40 M 0 101 H 40 M 0 102 H 40 M 0 103 H 40 M 0 104 H 40 M 0 105 H 40 M 0 106 H 40 M 0 107 H 40 M 0 108 H 40 M 0 109 H 40 M 0 111 H 40 M 0 112 H 40 M 0 113 H 40 M 0 114 H 40 M 0 115 H 40 M 0 116 H 40 M 0 117 H 40 M 0 118 H 40 M 0 119 H 40 M 0 121 H 40 M 0 122 H 40 M 0 123 H 40 M 0 124 H 40 M 0 125 H 40 M 0 126 H 40 M 0 127 H 40 M 0 128 H 40 M 0 129 H 40 M 0 131 H 40 M 0 132 H 40 M 0 133 H 40 M 0 134 H 40 M 0 135 H 40 M 0 136 H 40 M 0 137 H 40 M 0 138 H 40 M 0 139 H 40 M 0 141 H 40 M 0 142 H 40 M 0 143 H 40 M 0 144 H 40 M 0 145 H 40 M 0 146 H 40 M 0 147 H 40 M 0 148 H 40 M 0 149 H 40 M 0 151 H 40 M 0 152 H 40 M 0 153 H 40 M 0 154 H 40 M 0 155 H 40 M 0 156 H 40 M 0 157 H 40 M 0 158 H 40 M 0 159 H 40 M 0 161 H 40 M 0 162 H 40 M 0 163 H 40 M 0 164 H 40 M 0 165 H 40 M 0 166 H 40 M 0 167 H 40 M 0 168 H 40 M 0 169 H 40 M 0 171 H 40 M 0 172 H 40 M 0 173 H 40 M 0 174 H 40 M 0 175 H 40 M 0 176 H 40 M 0 177 H 40 M 0 178 H 40 M 0 179 H 40 M 0 181 H 40 M 0 182 H 40 M 0 183 H 40 M 0 184 H 40 M 0 185 H 40 M 0 186 H 40 M 0 187 H 40 M 0 188 H 40 M 0 189 H 40 M 0 191 H 40 M 0 192 H 40 M 0 193 H 40 M 0 194 H 40 M 0 195 H 40 M 0 196 H 40 M 0 197 H 40 M 0 198 H 40 M 0 199 H 40 M 0 201 H 40 M 0 202 H 40 M 0 203 H 40 M 0 204 H 40 M 0 205 H 40 M 0 206 H 40 M 0 207 H 40 M 0 208 H 40 M 0 209 H 40 M 0 211 H 40 M 0 212 H 40 M 0 213 H 40 M 0 214 H 40 M 0 215 H 40 M 0 216 H 40 M 0 217 H 40 M 0 218 H 40 M 0 219 H 40 M 0 221 H 40 M 0 222 H 40 M 0 223 H 40 M 0 224 H 40 M 0 225 H 40 M 0 226 H 40 M 0 227 H 40 M 0 228 H 40 M 0 229 H 40 M 0 231 H 40 M 0 232 H 40 M 0 233 H 40 M 0 234 H 40 M 0 235 H 40 M 0 236 H 40 M 0 237 H 40 M 0 238 H 40 M 0 239 H 40 M 1 0 V 240 M 2 0 V 240 M 3 0 V 240 M 4 0 V 240 M 5 0 V 240 M 6 0 V 240 M 7 0 V 240 M 8 0 V 240 M 9 0 V 240 M 11 0 V 240 M 12 0 V 240 M 13 0 V 240 M 14 0 V 240 M 15 0 V 240 M 16 0 V 240 M 17 0 V 240 M 18 0 V 240 M 19 0 V 240 M 21 0 V 240 M 22 0 V 240 M 23 0 V 240 M 24 0 V 240 M 25 0 V 240 M 26 0 V 240 M 27 0 V 240 M 28 0 V 240 M 29 0 V 240 M 31 0 V 240 M 32 0 V 240 M 33 0 V 240 M 34 0 V 240 M 35 0 V 240 M 36 0 V 240 M 37 0 V 240 M 38 0 V 240 M 39 0 V 240" style="fill:none;stroke:#f4c5bd;stroke-width:0.1;stroke-linecap:round;stroke-linejoin:round" />
  </g>
  <g id="Grid" transform="translate(154.96062992126 0) scale(3.77952755905512)">
    <path id="MajorGrid" d=" M 0 0 H 40 M 0 10 H 40 M 0 20 H 40 M 0 30 H 40 M 0 40 H 40 M 0 50 H 40 M 0 60 H 40 M 0 70 H 40 M 0 80 H 40 M 0 90 H 40 M 0 100 H 40 M 0 110 H 40 M 0 120 H 40 M 0 130 H 40 M 0 140 H 40 M 0 150 H 40 M 0 160 H 40 M 0 170 H 40 M 0 180 H 40 M 0 190 H 40 M 0 200 H 40 M 0 210 H 40 M 0 220 H 40 M 0 230 H 40 M 0 240 H 40M 0 0 V 240M 10 0 V 240M 20 0 V 240M 30 0 V 240M 40 0 V 240" style="fill:none;stroke:#f4c5bd;stroke-width:0.3;stroke-linecap:round;stroke-linejoin:round" />
    <path id="MinorGrid" d=" M 0 1 H 40 M 0 2 H 40 M 0 3 H 40 M 0 4 H 40 M 0 5 H 40 M 0 6 H 40 M 0 7 H 40 M 0 8 H 40 M 0 9 H 40 M 0 11 H 40 M 0 12 H 40 M 0 13 H 40 M 0 14 H 40 M 0 15 H 40 M 0 16 H 40 M 0 17 H 40 M 0 18 H 40 M 0 19 H 40 M 0 21 H 40 M 0 22 H 40 M 0 23 H 40 M 0 24 H 40 M 0 25 H 40 M 0 26 H 40 M 0 27 H 40 M 0 28 H 40 M 0 29 H 40 M 0 31 H 40 M 0 32 H 40 M 0 33 H 40 M 0 34 H 40 M 0 35 H 40 M 0 36 H 40 M 0 37 H 40 M 0 38 H 40 M 0 39 H 40 M 0 41 H 40 M 0 42 H 40 M 0 43 H 40 M 0 44 H 40 M 0 45 H 40 M 0 46 H 40 M 0 47 H 40 M 0 48 H 40 M 0 49 H 40 M 0 51 H 40 M 0 52 H 40 M 0 53 H 40 M 0 54 H 40 M 0 55 H 40 M 0 56 H 40 M 0 57 H 40 M 0 58 H 40 M 0 59 H 40 M 0 61 H 40 M 0 62 H 40 M 0 63 H 40 M 0 64 H 40 M 0 65 H 40 M 0 66 H 40 M 0 67 H 40 M 0 68 H 40 M 0 69 H 40 M 0 71 H 40 M 0 72 H 40 M 0 73 H 40 M 0 74 H 40 M 0 75 H 40 M 0 76 H 40 M 0 77 H 40 M 0 78 H 40 M 0 79 H 40 M 0 81 H 40 M 0 82 H 40 M 0 83 H 40 M 0 84 H 40 M 0 85 H 40 M 0 86 H 40 M 0 87 H 40 M 0 88 H 40 M 0 89 H 40 M 0 91 H 40 M 0 92 H 40 M 0 93 H 40 M 0 94 H 40 M 0 95 H 40 M 0 96 H 40 M 0 97 H 40 M 0 98 H 40 M 0 99 H 40 M 0 101 H 40 M 0 102 H 40 M 0 103 H 40 M 0 104 H 40 M 0 105 H 40 M 0 106 H 40 M 0 107 H 40 M 0 108 H 40 M 0 109 H 40 M 0 111 H 40 M 0 112 H 40 M 0 113 H 40 M 0 114 H 40 M 0 115 H 40 M 0 116 H 40 M 0 117 H 40 M 0 118 H 40 M 0 119 H 40 M 0 121 H 40 M 0 122 H 40 M 0 123 H 40 M 0 124 H 40 M 0 125 H 40 M 0 126 H 40 M 0 127 H 40 M 0 128 H 40 M 0 129 H 40 M 0 131 H 40 M 0 132 H 40 M 0 133 H 40 M 0 134 H 40 M 0 135 H 40 M 0 136 H 40 M 0 137 H 40 M 0 138 H 40 M 0 139 H 40 M 0 141 H 40 M 0 142 H 40 M 0 143 H 40 M 0 144 H 40 M 0 145 H 40 M 0 146 H 40 M 0 147 H 40 M 0 148 H 40 M 0 149 H 40 M 0 151 H 40 M 0 152 H 40 M 0 153 H 40 M 0 154 H 40 M 0 155 H 40 M 0 156 H 40 M 0 157 H 40 M 0 158 H 40 M 0 159 H 40 M 0 161 H 40 M 0 162 H 40 M 0 163 H 40 M 0 164 H 40 M 0 165 H 40 M 0 166 H 40 M 0 167 H 40 M 0 168 H 40 M 0 169 H 40 M 0 171 H 40 M 0 172 H 40 M 0 173 H 40 M 0 174 H 40 M 0 175 H 40 M 0 176 H 40 M 0 177 H 40 M 0 178 H 40 M 0 179 H 40 M 0 181 H 40 M 0 182 H 40 M 0 183 H 40 M 0 184 H 40 M 0 185 H 40 M 0 186 H 40 M 0 187 H 40 M 0 188 H 40 M 0 189 H 40 M 0 191 H 40 M 0 192 H 40 M 0 193 H 40 M 0 194 H 40 M 0 195 H 40 M 0 196 H 40 M 0 197 H 40 M 0 198 H 40 M 0 199 H 40 M 0 201 H 40 M 0 202 H 40 M 0 203 H 40 M 0 204 H 40 M 0 205 H 40 M 0 206 H 40 M 0 207 H 40 M 0 208 H 40 M 0 209 H 40 M 0 211 H 40 M 0 212 H 40 M 0 213 H 40 M 0 214 H 40 M 0 215 H 40 M 0 216 H 40 M 0 217 H 40 M 0 218 H 40 M 0 219 H 40 M 0 221 H 40 M 0 222 H 40 M 0 223 H 40 M 0 224 H 40 M 0 225 H 40 M 0 226 H 40 M 0 227 H 40 M 0 228 H 40 M 0 229 H 40 M 0 231 H 40 M 0 232 H 40 M 0 233 H 40 M 0 234 H 40 M 0 235 H 40 M 0 236 H 40 M 0 237 H 40 M 0 238 H 40 M 0 239 H 40 M 1 0 V 240 M 2 0 V 240 M 3 0 V 240 M 4 0 V 240 M 5 0 V 240 M 6 0 V 240 M 7 0 V 240 M 8 0 V 240 M 9 0 V 240 M 11 0 V 240 M 12 0 V 240 M 13 0 V 240 M 14 0 V 240 M 15 0 V 240 M 16 0 V 240 M 17 0 V 240 M 18 0 V 240 M 19 0 V 240 M 21 0 V 240 M 22 0 V 240 M 23 0 V 240 M 24 0 V 240 M 25 0 V 240 M 26 0 V 240 M 27 0 V 240 M 28 0 V 240 M 29 0 V 240 M 31 0 V 240 M 32 0 V 240 M 33 0 V 240 M 34 0 V 240 M 35 0 V 240 M 36 0 V 240 M 37 0 V 240 M 38 0 V 240 M 39 0 V 240" style="fill:none;stroke:#f4c5bd;stroke-width:0.1;stroke-linecap:round;stroke-linejoin:round" />
  </g>
  <polyline transform="translate(128.503937007874 869.291338582677) scale(3.77952755905512)" style="fill:none;stroke:#808080;stroke-width:0.3;stroke-linecap:round;stroke-linejoin:round" points="0,10 2,10 2,0 4,0 4,10 6,10 " />
  <text x="94.488188976378" y="771.685039370079" style="font-family:Arial, sans-serif; font-size:12px; fill:#808080;">40 мм/с</text>
  <g id="ECG" transform=" scale(3.77952755905512)" style="fill:none;stroke:black;stroke-width:0.25;stroke-linecap:round;stroke-linejoin:round">
    <polyline id="ECG0_I" transform="translate(0 0)" points="0,20.2 0.2,20.3 0.3,20.3 0.5,20.2 0.6,20.2 0.8,20.3 0.9,20.3 1.1,20.2 1.2,20.1 1.4,20.2 1.6,20.2 1.7,20.3 1.9,20.4 2,20.4 2.2,20.3 2.3,20.3 2.5,20.3 2.6,20.4 2.8,20.4 3,20.4 3.1,20.4 3.3,20.4 3.4,20.5 3.6,20.4 3.7,20.5 3.9,20.5 4,20.5 4.2,20.5 4.4,20.6 4.5,20.6 4.7,20.5 4.8,20.3 5,20.4 5.1,20.5 5.3,20.5 5.4,20.5 5.6,20.6 5.8,20.6 5.9,20.5 6.1,20.5 6.2,20.7 6.4,20.6 6.5,20.5 6.7,20.4 6.8,20.4 7,20.5 7.2,20.6 7.3,20.7 7.5,20.6 7.6,20.5 7.8,20.5 7.9,20.5 8.1,20.6 8.2,20.6 8.4,20.5 8.6,20.5 8.7,20.6 8.9,20.7 9,20.5 9.2,20.5 9.3,20.5 9.5,20.5 9.6,20.5 9.8,20.5 10,20.4 10.1,20.4 10.3,20.5 10.4,20.6 10.6,20.6 10.7,20.5 10.9,20.4 11.1,20.4 11.2,20.5 11.4,20.3 11.5,20.2 11.7,20.2 11.8,20.2 12,20.1 12.1,20.1 12.3,20.1 12.5,20.1 12.6,19.9 12.8,19.8 12.9,19.8 13.1,19.9 13.2,19.9 13.4,19.8 13.5,19.7 13.7,19.5 13.9,19.6 14,19.7 14.2,19.8 14.3,19.9 14.5,20.1 14.6,20.2 14.8,20.3 14.9,20.3 15.1,20.2 15.3,20.2 15.4,20.2 15.6,20.2 15.7,20.2 15.9,20.2 16,20 16.2,19.7 16.3,19.1 16.5,18.4 16.7,17.6 16.8,17 17,16.4 17.1,15.7 17.3,15.4 17.4,15.1 17.6,14.7 17.7,14.3 17.9,13 18.1,11.2 18.2,9.3 18.4,8.2 18.5,8.3 18.7,9.3 18.8,11.2 19,13.5 19.1,15.7 19.3,17.2 19.5,18.2 19.6,18.9 19.8,19.3 19.9,19.6 20.1,19.7 20.2,19.9 20.4,19.9 20.5,20 20.7,20 20.9,20 21,20 21.2,20 21.3,20 21.5,20 21.6,19.9 21.8,19.9 21.9,19.9 22.1,19.9 22.3,19.9 22.4,20 22.6,19.9 22.7,19.9 22.9,19.8 23,19.8 23.2,19.7 23.3,19.6 23.5,19.7 23.7,19.6 23.8,19.5 24,19.4 24.1,19.4 24.3,19.5 24.4,19.5 24.6,19.5 24.7,19.4 24.9,19.3 25.1,19.4 25.2,19.3 25.4,19.2 25.5,19.1 25.7,19.1 25.8,19.1 26,19 26.1,18.9 26.3,18.9 26.5,18.9 26.6,18.8 26.8,18.6 26.9,18.6 27.1,18.5 27.2,18.4 27.4,18.3 27.5,18.1 27.7,18.1 27.9,18 28,17.8 28.2,17.8 28.3,17.6 28.5,17.4 28.6,17.4 28.8,17.4 28.9,17.4 29.1,17.4 29.3,17.2 29.4,17.2 29.6,17.2 29.7,17.3 29.9,17.2 30,17.2 30.2,17.1 30.4,17.2 30.5,17.3 30.7,17.4 30.8,17.4 31,17.5 31.1,17.5 31.3,17.6 31.4,17.7 31.6,17.7 31.8,17.7 31.9,17.7 32.1,17.8 32.2,18 32.4,17.9 32.5,18 32.7,17.9 32.8,18 33,18 33.2,18 33.3,18.1 33.5,18 33.6,18.1 33.8,18.1 33.9,18.2 34.1,18.1 34.2,18 34.4,18 34.6,18 34.7,18.1 34.9,18 35,18 35.2,18.2 35.3,18 35.5,18 35.6,17.9 35.8,17.9 36,17.9 36.1,17.9 36.3,17.9 36.4,17.9 36.6,18 36.7,17.9 36.9,17.8 37,17.8 37.2,17.8 37.4,17.8 37.5,17.8 37.7,17.8 37.8,17.8 38,17.8 38.1,17.9 38.3,17.9 38.4,17.8 38.6,17.9 38.8,17.9 38.9,17.9 39.1,17.8 39.2,17.8 39.4,17.8 39.5,17.9 39.7,17.9 39.8,17.9 " />
    <polyline id="ECG1_II" transform="translate(0 40)" points="0,19.2 0.2,19 0.3,18.9 0.5,18.9 0.6,18.7 0.8,18.7 0.9,18.8 1.1,18.9 1.2,19.3 1.4,19.4 1.6,19 1.7,19.1 1.9,19.3 2,19.5 2.2,19.6 2.3,19.6 2.5,19.3 2.6,19.2 2.8,19.2 3,19.4 3.1,19.6 3.3,19.8 3.4,19.9 3.6,19.8 3.7,19.7 3.9,20 4,20.2 4.2,20.3 4.4,20.2 4.5,19.9 4.7,19.7 4.8,19.7 5,20 5.1,20.1 5.3,20.3 5.4,20.3 5.6,20.2 5.8,20.2 5.9,20.2 6.1,20 6.2,20 6.4,20.1 6.5,20.1 6.7,20.2 6.8,20.5 7,20.6 7.2,20.6 7.3,20.3 7.5,20.3 7.6,20.2 7.8,20.2 7.9,20.2 8.1,20.3 8.2,20.5 8.4,20.5 8.6,20.4 8.7,20.4 8.9,20.5 9,20.5 9.2,20.5 9.3,20.6 9.5,20.5 9.6,20.6 9.8,20.4 10,20.3 10.1,20.2 10.3,20.2 10.4,20.2 10.6,20.3 10.7,20.2 10.9,19.8 11.1,19.6 11.2,19.3 11.4,19.2 11.5,19.2 11.7,18.9 11.8,18.7 12,18.8 12.1,19.1 12.3,19.2 12.5,19.4 12.6,19.2 12.8,18.9 12.9,19 13.1,19.2 13.2,19.4 13.4,20 13.5,20.1 13.7,19.7 13.9,19.5 14,19.7 14.2,19.8 14.3,20 14.5,20.2 14.6,20.2 14.8,20.1 14.9,20.4 15.1,20.4 15.3,20.4 15.4,20.4 15.6,20.3 15.7,20.2 15.9,20 16,19.8 16.2,19.3 16.3,18.4 16.5,17.2 16.7,16.2 16.8,15.6 17,15.2 17.1,14.6 17.3,13.1 17.4,11.5 17.6,10.4 17.7,9.4 17.9,8.2 18.1,6.9 18.2,6.6 18.4,7.2 18.5,7.6 18.7,8.3 18.8,11.3 19,15.6 19.1,18.7 19.3,19.9 19.5,20.3 19.6,20.4 19.8,20.5 19.9,20.7 20.1,20.9 20.2,20.9 20.4,21 20.5,21.1 20.7,21.1 20.9,21.1 21,21.2 21.2,21.1 21.3,21.1 21.5,21.3 21.6,21.3 21.8,21.2 21.9,21.2 22.1,21.5 22.3,21.6 22.4,21.3 22.6,21 22.7,21.1 22.9,21.2 23,21 23.2,21 23.3,20.9 23.5,20.8 23.7,20.7 23.8,20.5 24,20.4 24.1,20.4 24.3,20.6 24.4,20.8 24.6,20.6 24.7,20.1 24.9,20 25.1,20 25.2,20 25.4,20 25.5,20 25.7,19.8 25.8,19.4 26,19 26.1,19 26.3,19 26.5,19 26.6,18.7 26.8,18.5 26.9,18.3 27.1,18.1 27.2,17.8 27.4,17.7 27.5,17.4 27.7,17.3 27.9,17.1 28,16.9 28.2,16.7 28.3,16.7 28.5,16.6 28.6,16.6 28.8,16.6 28.9,16.6 29.1,16.7 29.3,16.7 29.4,16.7 29.6,16.7 29.7,16.8 29.9,17 30,17.2 30.2,17.1 30.4,17.2 30.5,17.4 30.7,17.8 30.8,18.1 31,18.2 31.1,18.2 31.3,18.4 31.4,18.6 31.6,18.7 31.8,18.9 31.9,19 32.1,19.1 32.2,19.2 32.4,19.3 32.5,19.4 32.7,19.2 32.8,19.2 33,19.4 33.2,19.4 33.3,19.1 33.5,19.2 33.6,19.4 33.8,19.4 33.9,19.5 34.1,19.6 34.2,19.5 34.4,19.7 34.6,19.8 34.7,19.6 34.9,19.2 35,19.1 35.2,19.3 35.3,19.6 35.5,19.6 35.6,19.5 35.8,19.5 36,19.4 36.1,19.4 36.3,19.3 36.4,19.5 36.6,19.7 36.7,19.7 36.9,19.6 37,19.7 37.2,19.8 37.4,19.8 37.5,19.8 37.7,19.9 37.8,19.8 38,19.7 38.1,19.9 38.3,20 38.4,19.9 38.6,19.8 38.8,19.9 38.9,20 39.1,20 39.2,20.1 39.4,20.3 39.5,20.4 39.7,20.2 39.8,20.2 " />
    <polyline id="ECG2_III" transform="translate(0 80)" points="0,19 0.2,18.7 0.3,18.6 0.5,18.6 0.6,18.5 0.8,18.4 0.9,18.4 1.1,18.7 1.2,19.1 1.4,19.2 1.6,18.8 1.7,18.9 1.9,18.9 2,19.1 2.2,19.3 2.3,19.3 2.5,19 2.6,18.8 2.8,18.9 3,19 3.1,19.2 3.3,19.3 3.4,19.4 3.6,19.4 3.7,19.3 3.9,19.5 4,19.7 4.2,19.8 4.4,19.6 4.5,19.3 4.7,19.3 4.8,19.3 5,19.6 5.1,19.6 5.3,19.8 5.4,19.8 5.6,19.6 5.8,19.6 5.9,19.7 6.1,19.5 6.2,19.3 6.4,19.5 6.5,19.6 6.7,19.7 6.8,20.1 7,20.1 7.2,19.9 7.3,19.7 7.5,19.7 7.6,19.7 7.8,19.7 7.9,19.7 8.1,19.7 8.2,19.9 8.4,20 8.6,19.9 8.7,19.8 8.9,19.9 9,19.9 9.2,20 9.3,20.1 9.5,20 9.6,20.1 9.8,19.9 10,19.9 10.1,19.9 10.3,19.7 10.4,19.6 10.6,19.7 10.7,19.7 10.9,19.4 11.1,19.2 11.2,18.8 11.4,18.9 11.5,18.9 11.7,18.7 11.8,18.6 12,18.7 12.1,19 12.3,19.1 12.5,19.3 12.6,19.3 12.8,19.1 12.9,19.2 13.1,19.3 13.2,19.5 13.4,20.1 13.5,20.4 13.7,20.1 13.9,19.9 14,20 14.2,19.9 14.3,20.1 14.5,20.1 14.6,20 14.8,19.9 14.9,20.1 15.1,20.2 15.3,20.2 15.4,20.2 15.6,20.1 15.7,20 15.9,19.9 16,19.7 16.2,19.6 16.3,19.3 16.5,18.8 16.7,18.6 16.8,18.6 17,18.8 17.1,18.9 17.3,17.6 17.4,16.4 17.6,15.7 17.7,15.1 17.9,15.2 18.1,15.7 18.2,17.3 18.4,19 18.5,19.3 18.7,19 18.8,20.1 19,22.2 19.1,23 19.3,22.7 19.5,22 19.6,21.5 19.8,21.2 19.9,21.1 20.1,21.1 20.2,21 20.4,21.1 20.5,21.1 20.7,21.1 20.9,21.1 21,21.1 21.2,21.1 21.3,21.1 21.5,21.3 21.6,21.4 21.8,21.3 21.9,21.4 22.1,21.6 22.3,21.6 22.4,21.3 22.6,21.1 22.7,21.2 22.9,21.4 23,21.2 23.2,21.3 23.3,21.3 23.5,21.2 23.7,21.1 23.8,21 24,21 24.1,21 24.3,21.1 24.4,21.3 24.6,21.1 24.7,20.7 24.9,20.6 25.1,20.7 25.2,20.7 25.4,20.9 25.5,20.9 25.7,20.8 25.8,20.3 26,20.1 26.1,20.1 26.3,20.1 26.5,20.1 26.6,19.9 26.8,19.9 26.9,19.7 27.1,19.6 27.2,19.5 27.4,19.4 27.5,19.3 27.7,19.2 27.9,19.1 28,19.1 28.2,19 28.3,19.1 28.5,19.2 28.6,19.2 28.8,19.2 28.9,19.2 29.1,19.3 29.3,19.4 29.4,19.5 29.6,19.5 29.7,19.5 29.9,19.7 30,20 30.2,20 30.4,20 30.5,20.1 30.7,20.4 30.8,20.6 31,20.7 31.1,20.7 31.3,20.8 31.4,20.9 31.6,21 31.8,21.2 31.9,21.2 32.1,21.2 32.2,21.2 32.4,21.4 32.5,21.4 32.7,21.3 32.8,21.2 33,21.4 33.2,21.4 33.3,21 33.5,21.1 33.6,21.2 33.8,21.3 33.9,21.3 34.1,21.5 34.2,21.5 34.4,21.6 34.6,21.8 34.7,21.4 34.9,21.1 35,21.1 35.2,21.1 35.3,21.5 35.5,21.6 35.6,21.6 35.8,21.6 36,21.6 36.1,21.4 36.3,21.4 36.4,21.6 36.6,21.7 36.7,21.8 36.9,21.8 37,21.9 37.2,22 37.4,22 37.5,22 37.7,22.1 37.8,22 38,21.9 38.1,22 38.3,22.1 38.4,22.1 38.6,21.9 38.8,22 38.9,22.1 39.1,22.1 39.2,22.2 39.4,22.4 39.5,22.5 39.7,22.3 39.8,22.2 " />
    <polyline id="ECG3_AVR" transform="translate(0 120)" points="0,20.3 0.2,20.4 0.3,20.4 0.5,20.4 0.6,20.6 0.8,20.5 0.9,20.4 1.1,20.4 1.2,20.3 1.4,20.2 1.6,20.4 1.7,20.3 1.9,20.2 2,20 2.2,20.1 2.3,20.1 2.5,20.2 2.6,20.2 2.8,20.2 3,20.1 3.1,20 3.3,19.9 3.4,19.8 3.6,19.9 3.7,19.9 3.9,19.7 4,19.6 4.2,19.6 4.4,19.6 4.5,19.8 4.7,19.9 4.8,20 5,19.8 5.1,19.7 5.3,19.6 5.4,19.6 5.6,19.6 5.8,19.6 5.9,19.6 6.1,19.7 6.2,19.7 6.4,19.6 6.5,19.7 6.7,19.7 6.8,19.6 7,19.4 7.2,19.4 7.3,19.5 7.5,19.6 7.6,19.6 7.8,19.6 7.9,19.6 8.1,19.6 8.2,19.4 8.4,19.5 8.6,19.6 8.7,19.5 8.9,19.4 9,19.5 9.2,19.5 9.3,19.4 9.5,19.5 9.6,19.4 9.8,19.6 10,19.7 10.1,19.7 10.3,19.6 10.4,19.6 10.6,19.6 10.7,19.6 10.9,19.9 11.1,20 11.2,20.1 11.4,20.2 11.5,20.3 11.7,20.4 11.8,20.5 12,20.5 12.1,20.4 12.3,20.4 12.5,20.3 12.6,20.4 12.8,20.6 12.9,20.6 13.1,20.4 13.2,20.3 13.4,20.1 13.5,20.1 13.7,20.4 13.9,20.5 14,20.3 14.2,20.2 14.3,20 14.5,19.8 14.6,19.8 14.8,19.8 14.9,19.7 15.1,19.7 15.3,19.7 15.4,19.7 15.6,19.8 15.7,19.8 15.9,19.9 16,20.1 16.2,20.5 16.3,21.2 16.5,22.2 16.7,23.1 16.8,23.7 17,24.2 17.1,24.8 17.3,25.8 17.4,26.7 17.6,27.5 17.7,28.2 17.9,29.4 18.1,30.9 18.2,32.1 18.4,32.3 18.5,32.1 18.7,31.2 18.8,28.7 19,25.4 19.1,22.8 19.3,21.5 19.5,20.7 19.6,20.4 19.8,20.1 19.9,19.8 20.1,19.7 20.2,19.6 20.4,19.5 20.5,19.4 20.7,19.5 20.9,19.4 21,19.4 21.2,19.4 21.3,19.4 21.5,19.4 21.6,19.4 21.8,19.5 21.9,19.5 22.1,19.3 22.3,19.2 22.4,19.4 22.6,19.5 22.7,19.5 22.9,19.5 23,19.6 23.2,19.7 23.3,19.8 23.5,19.8 23.7,19.8 23.8,20 24,20.1 24.1,20.1 24.3,19.9 24.4,19.8 24.6,19.9 24.7,20.2 24.9,20.4 25.1,20.3 25.2,20.4 25.4,20.4 25.5,20.4 25.7,20.6 25.8,20.8 26,21 26.1,21 26.3,21 26.5,21 26.6,21.3 26.8,21.5 26.9,21.5 27.1,21.7 27.2,21.9 27.4,22 27.5,22.2 27.7,22.3 27.9,22.5 28,22.6 28.2,22.7 28.3,22.9 28.5,23 28.6,23 28.8,23 28.9,23 29.1,23 29.3,23.1 29.4,23.1 29.6,23 29.7,22.9 29.9,22.9 30,22.8 30.2,22.9 30.4,22.8 30.5,22.7 30.7,22.4 30.8,22.3 31,22.1 31.1,22.1 31.3,22 31.4,21.9 31.6,21.8 31.8,21.7 31.9,21.7 32.1,21.5 32.2,21.4 32.4,21.4 32.5,21.3 32.7,21.5 32.8,21.5 33,21.3 33.2,21.3 33.3,21.4 33.5,21.4 33.6,21.3 33.8,21.3 33.9,21.1 34.1,21.2 34.2,21.3 34.4,21.1 34.6,21 34.7,21.2 34.9,21.4 35,21.4 35.2,21.3 35.3,21.2 35.5,21.3 35.6,21.3 35.8,21.3 36,21.3 36.1,21.4 36.3,21.4 36.4,21.3 36.6,21.2 36.7,21.2 36.9,21.3 37,21.3 37.2,21.3 37.4,21.2 37.5,21.2 37.7,21.2 37.8,21.3 38,21.3 38.1,21.1 38.3,21.1 38.4,21.1 38.6,21.2 38.8,21.1 38.9,21 39.1,21.1 39.2,21 39.4,20.9 39.5,20.9 39.7,21 39.8,21 " />
    <polyline id="ECG4_AVL" transform="translate(0 160)" points="0,20.6 0.2,20.8 0.3,20.8 0.5,20.8 0.6,20.8 0.8,21 0.9,21 1.1,20.8 1.2,20.5 1.4,20.5 1.6,20.7 1.7,20.7 1.9,20.7 2,20.6 2.2,20.5 2.3,20.5 2.5,20.7 2.6,20.8 2.8,20.8 3,20.7 3.1,20.6 3.3,20.6 3.4,20.5 3.6,20.5 3.7,20.6 3.9,20.5 4,20.4 4.2,20.3 4.4,20.5 4.5,20.6 4.7,20.6 4.8,20.5 5,20.4 5.1,20.4 5.3,20.3 5.4,20.4 5.6,20.5 5.8,20.5 5.9,20.4 6.1,20.6 6.2,20.7 6.4,20.6 6.5,20.4 6.7,20.3 6.8,20.1 7,20.2 7.2,20.3 7.3,20.5 7.5,20.5 7.6,20.4 7.8,20.4 7.9,20.4 8.1,20.4 8.2,20.3 8.4,20.2 8.6,20.3 8.7,20.4 8.9,20.4 9,20.3 9.2,20.2 9.3,20.2 9.5,20.2 9.6,20.2 9.8,20.3 10,20.2 10.1,20.3 10.3,20.4 10.4,20.5 10.6,20.4 10.7,20.4 10.9,20.5 11.1,20.6 11.2,20.8 11.4,20.7 11.5,20.6 11.7,20.7 11.8,20.8 12,20.7 12.1,20.6 12.3,20.5 12.5,20.3 12.6,20.3 12.8,20.3 12.9,20.3 13.1,20.3 13.2,20.2 13.4,19.8 13.5,19.6 13.7,19.7 13.9,19.8 14,19.9 14.2,19.9 14.3,19.9 14.5,20 14.6,20.1 14.8,20.2 14.9,20.1 15.1,20 15.3,20 15.4,20 15.6,20 15.7,20.1 15.9,20.1 16,20.1 16.2,20.1 16.3,19.9 16.5,19.8 16.7,19.5 16.8,19.2 17,18.8 17.1,18.5 17.3,18.9 17.4,19.3 17.6,19.5 17.7,19.5 17.9,18.9 18.1,17.7 18.2,16 18.4,14.6 18.5,14.5 18.7,15.1 18.8,15.6 19,15.7 19.1,16.3 19.3,17.2 19.5,18.1 19.6,18.7 19.8,19.1 19.9,19.2 20.1,19.3 20.2,19.4 20.4,19.4 20.5,19.5 20.7,19.4 20.9,19.5 21,19.4 21.2,19.5 21.3,19.5 21.5,19.3 21.6,19.3 21.8,19.3 21.9,19.3 22.1,19.2 22.3,19.1 22.4,19.3 22.6,19.4 22.7,19.3 22.9,19.2 23,19.3 23.2,19.2 23.3,19.2 23.5,19.2 23.7,19.3 23.8,19.3 24,19.2 24.1,19.2 24.3,19.2 24.4,19.1 24.6,19.2 24.7,19.3 24.9,19.3 25.1,19.3 25.2,19.3 25.4,19.1 25.5,19.1 25.7,19.1 25.8,19.3 26,19.5 26.1,19.4 26.3,19.4 26.5,19.4 26.6,19.4 26.8,19.4 26.9,19.5 27.1,19.4 27.2,19.5 27.4,19.5 27.5,19.4 27.7,19.4 27.9,19.4 28,19.4 28.2,19.4 28.3,19.2 28.5,19.1 28.6,19.1 28.8,19.1 28.9,19.1 29.1,19 29.3,18.9 29.4,18.8 29.6,18.8 29.7,18.9 29.9,18.7 30,18.6 30.2,18.5 30.4,18.6 30.5,18.6 30.7,18.5 30.8,18.4 31,18.4 31.1,18.4 31.3,18.4 31.4,18.4 31.6,18.4 31.8,18.3 31.9,18.3 32.1,18.3 32.2,18.4 32.4,18.3 32.5,18.3 32.7,18.3 32.8,18.4 33,18.3 33.2,18.3 33.3,18.5 33.5,18.5 33.6,18.5 33.8,18.4 33.9,18.5 34.1,18.3 34.2,18.2 34.4,18.2 34.6,18.1 34.7,18.3 34.9,18.5 35,18.5 35.2,18.5 35.3,18.3 35.5,18.2 35.6,18.1 35.8,18.1 36,18.2 36.1,18.3 36.3,18.3 36.4,18.1 36.6,18.1 36.7,18.1 36.9,18 37,18 37.2,17.9 37.4,17.9 37.5,17.8 37.7,17.8 37.8,17.9 38,17.9 38.1,18 38.3,17.9 38.4,17.9 38.6,18 38.8,18 38.9,17.9 39.1,17.8 39.2,17.8 39.4,17.7 39.5,17.7 39.7,17.8 39.8,17.8 " />
    <polyline id="ECG5_AVF" transform="translate(0 200)" points="0,19.1 0.2,18.8 0.3,18.8 0.5,18.8 0.6,18.6 0.8,18.6 0.9,18.6 1.1,18.8 1.2,19.2 1.4,19.3 1.6,18.9 1.7,19 1.9,19.1 2,19.3 2.2,19.4 2.3,19.4 2.5,19.1 2.6,19 2.8,19.1 3,19.2 3.1,19.4 3.3,19.5 3.4,19.7 3.6,19.6 3.7,19.5 3.9,19.8 4,19.9 4.2,20 4.4,19.9 4.5,19.6 4.7,19.5 4.8,19.5 5,19.8 5.1,19.9 5.3,20.1 5.4,20.1 5.6,19.9 5.8,19.9 5.9,20 6.1,19.7 6.2,19.7 6.4,19.8 6.5,19.9 6.7,19.9 6.8,20.3 7,20.4 7.2,20.3 7.3,20 7.5,20 7.6,19.9 7.8,19.9 7.9,20 8.1,20 8.2,20.2 8.4,20.3 8.6,20.1 8.7,20.1 8.9,20.2 9,20.2 9.2,20.3 9.3,20.3 9.5,20.3 9.6,20.3 9.8,20.1 10,20.1 10.1,20.1 10.3,19.9 10.4,19.9 10.6,20 10.7,19.9 10.9,19.6 11.1,19.4 11.2,19.1 11.4,19.1 11.5,19.1 11.7,18.8 11.8,18.7 12,18.8 12.1,19 12.3,19.1 12.5,19.4 12.6,19.2 12.8,19 12.9,19.1 13.1,19.3 13.2,19.5 13.4,20.1 13.5,20.3 13.7,19.9 13.9,19.7 14,19.8 14.2,19.9 14.3,20 14.5,20.2 14.6,20.1 14.8,20 14.9,20.2 15.1,20.3 15.3,20.3 15.4,20.3 15.6,20.2 15.7,20.1 15.9,19.9 16,19.7 16.2,19.5 16.3,18.9 16.5,18 16.7,17.4 16.8,17.2 17,17 17.1,16.7 17.3,15.3 17.4,13.9 17.6,13.1 17.7,12.3 17.9,11.7 18.1,11.4 18.2,12 18.4,13.1 18.5,13.5 18.7,13.7 18.8,15.7 19,18.9 19.1,20.9 19.3,21.3 19.5,21.2 19.6,21 19.8,20.8 19.9,21 20.1,21 20.2,21 20.4,21 20.5,21.1 20.7,21.1 20.9,21.1 21,21.2 21.2,21.1 21.3,21.1 21.5,21.3 21.6,21.3 21.8,21.2 21.9,21.3 22.1,21.5 22.3,21.6 22.4,21.3 22.6,21.1 22.7,21.2 22.9,21.3 23,21.2 23.2,21.1 23.3,21.1 23.5,21 23.7,20.9 23.8,20.8 24,20.7 24.1,20.8 24.3,20.9 24.4,21.1 24.6,20.8 24.7,20.4 24.9,20.3 25.1,20.3 25.2,20.4 25.4,20.5 25.5,20.5 25.7,20.3 25.8,19.9 26,19.5 26.1,19.6 26.3,19.6 26.5,19.5 26.6,19.3 26.8,19.2 26.9,19 27.1,18.9 27.2,18.7 27.4,18.5 27.5,18.4 27.7,18.3 27.9,18.1 28,18 28.2,17.8 28.3,17.9 28.5,17.9 28.6,17.9 28.8,17.9 28.9,17.9 29.1,18 29.3,18.1 29.4,18.1 29.6,18.1 29.7,18.2 29.9,18.4 30,18.6 30.2,18.6 30.4,18.6 30.5,18.8 30.7,19.1 30.8,19.3 31,19.4 31.1,19.4 31.3,19.6 31.4,19.7 31.6,19.9 31.8,20.1 31.9,20.1 32.1,20.1 32.2,20.2 32.4,20.3 32.5,20.4 32.7,20.2 32.8,20.2 33,20.3 33.2,20.4 33.3,20.1 33.5,20.2 33.6,20.3 33.8,20.3 33.9,20.4 34.1,20.6 34.2,20.5 34.4,20.7 34.6,20.8 34.7,20.5 34.9,20.2 35,20.1 35.2,20.2 35.3,20.6 35.5,20.6 35.6,20.6 35.8,20.6 36,20.5 36.1,20.4 36.3,20.3 36.4,20.6 36.6,20.7 36.7,20.8 36.9,20.7 37,20.8 37.2,20.9 37.4,20.9 37.5,20.9 37.7,21 37.8,20.9 38,20.8 38.1,20.9 38.3,21 38.4,21 38.6,20.9 38.8,21 38.9,21.1 39.1,21 39.2,21.2 39.4,21.4 39.5,21.4 39.7,21.3 39.8,21.2 " />
    <polyline id="ECG6_V1" transform="translate(41 0)" points="0,22.3 0.2,22.4 0.3,22.4 0.5,22.4 0.6,22.4 0.8,22.4 0.9,22.3 1.1,22.3 1.2,22.1 1.4,22 1.6,22.2 1.7,22.2 1.9,22.1 2,22.1 2.2,22 2.3,22 2.5,22 2.6,22.1 2.8,22.1 3,22 3.1,21.8 3.3,21.8 3.4,21.8 3.6,21.8 3.7,21.8 3.9,21.8 4,21.8 4.2,21.7 4.4,21.7 4.5,21.8 4.7,21.8 4.8,21.8 5,21.7 5.1,21.6 5.3,21.5 5.4,21.6 5.6,21.7 5.8,21.6 5.9,21.6 6.1,21.7 6.2,21.7 6.4,21.7 6.5,21.7 6.7,21.6 6.8,21.4 7,21.5 7.2,21.5 7.3,21.6 7.5,21.6 7.6,21.6 7.8,21.6 7.9,21.6 8.1,21.5 8.2,21.4 8.4,21.4 8.6,21.5 8.7,21.6 8.9,21.5 9,21.5 9.2,21.6 9.3,21.5 9.5,21.5 9.6,21.5 9.8,21.5 10,21.5 10.1,21.4 10.3,21.5 10.4,21.5 10.6,21.4 10.7,21.2 10.9,21.2 11.1,21.1 11.2,21 11.4,21 11.5,20.8 11.7,20.7 11.8,20.5 12,20.3 12.1,20.3 12.3,20.5 12.5,20.8 12.6,21.1 12.8,21.4 12.9,21.4 13.1,21.4 13.2,21.4 13.4,21.2 13.5,21 13.7,21.1 13.9,20.8 14,20.6 14.2,20.3 14.3,20.1 14.5,19.9 14.6,19.7 14.8,19.4 14.9,19.1 15.1,18.9 15.3,18.6 15.4,18.2 15.6,17.8 15.7,17.1 15.9,16.3 16,16 16.2,16.3 16.3,17.6 16.5,19.8 16.7,22.4 16.8,24.2 17,25.6 17.1,27.2 17.3,28.7 17.4,30 17.6,31 17.7,31.9 17.9,33.3 18.1,34.8 18.2,35.7 18.4,35.8 18.5,35 18.7,33.6 18.8,30.9 19,27.4 19.1,24.6 19.3,23 19.5,21.8 19.6,21 19.8,20.4 19.9,19.9 20.1,19.6 20.2,19.5 20.4,19.4 20.5,19.3 20.7,19.3 20.9,19.2 21,19.1 21.2,19 21.3,19 21.5,18.9 21.6,18.8 21.8,18.8 21.9,18.8 22.1,18.7 22.3,18.6 22.4,18.6 22.6,18.7 22.7,18.7 22.9,18.6 23,18.7 23.2,18.7 23.3,18.7 23.5,18.7 23.7,18.7 23.8,18.8 24,18.8 24.1,18.8 24.3,18.7 24.4,18.6 24.6,18.6 24.7,18.7 24.9,18.7 25.1,18.7 25.2,18.7 25.4,18.6 25.5,18.6 25.7,18.7 25.8,18.7 26,18.8 26.1,18.7 26.3,18.7 26.5,18.7 26.6,18.8 26.8,18.9 26.9,18.9 27.1,19.1 27.2,19.2 27.4,19.3 27.5,19.4 27.7,19.5 27.9,19.7 28,19.9 28.2,20.1 28.3,20.3 28.5,20.6 28.6,20.8 28.8,21 28.9,21.2 29.1,21.4 29.3,21.5 29.4,21.6 29.6,21.8 29.7,21.9 29.9,22.1 30,22.2 30.2,22.4 30.4,22.4 30.5,22.4 30.7,22.3 30.8,22.4 31,22.4 31.1,22.5 31.3,22.4 31.4,22.4 31.6,22.4 31.8,22.4 31.9,22.4 32.1,22.4 32.2,22.4 32.4,22.4 32.5,22.3 32.7,22.3 32.8,22.3 33,22.2 33.2,22.2 33.3,22.4 33.5,22.4 33.6,22.3 33.8,22.4 33.9,22.4 34.1,22.4 34.2,22.4 34.4,22.3 34.6,22.3 34.7,22.4 34.9,22.5 35,22.6 35.2,22.6 35.3,22.5 35.5,22.6 35.6,22.6 35.8,22.6 36,22.6 36.1,22.7 36.3,22.7 36.4,22.8 36.6,22.7 36.7,22.7 36.9,22.7 37,22.8 37.2,22.8 37.4,22.8 37.5,22.8 37.7,22.8 37.8,22.8 38,22.8 38.1,22.8 38.3,22.8 38.4,22.8 38.6,22.9 38.8,22.8 38.9,22.8 39.1,22.9 39.2,22.8 39.4,22.8 39.5,22.8 39.7,22.9 39.8,22.8 " />
    <polyline id="ECG7_V2" transform="translate(41 40)" points="0,19.9 0.2,20 0.3,20.1 0.5,20 0.6,20 0.8,20.1 0.9,20.1 1.1,20 1.2,19.9 1.4,19.9 1.6,20 1.7,20.1 1.9,20.1 2,20.2 2.2,20.1 2.3,20.1 2.5,20.2 2.6,20.3 2.8,20.3 3,20.2 3.1,20.2 3.3,20.2 3.4,20.2 3.6,20.2 3.7,20.2 3.9,20.3 4,20.3 4.2,20.2 4.4,20.2 4.5,20.3 4.7,20.3 4.8,20.3 5,20.2 5.1,20.2 5.3,20.1 5.4,20.2 5.6,20.3 5.8,20.3 5.9,20.2 6.1,20.3 6.2,20.4 6.4,20.5 6.5,20.4 6.7,20.3 6.8,20.1 7,20.2 7.2,20.3 7.3,20.4 7.5,20.5 7.6,20.4 7.8,20.4 7.9,20.4 8.1,20.3 8.2,20.3 8.4,20.2 8.6,20.3 8.7,20.3 8.9,20.3 9,20.3 9.2,20.2 9.3,20.2 9.5,20.3 9.6,20.3 9.8,20.3 10,20.3 10.1,20.3 10.3,20.4 10.4,20.4 10.6,20.3 10.7,20.2 10.9,20.2 11.1,20.1 11.2,20.1 11.4,20 11.5,19.8 11.7,19.8 11.8,19.6 12,19.5 12.1,19.4 12.3,19.5 12.5,19.9 12.6,20.1 12.8,20.2 12.9,20.3 13.1,20.5 13.2,20.7 13.4,20.6 13.5,20.5 13.7,20.4 13.9,20.2 14,20.2 14.2,20 14.3,20 14.5,20 14.6,19.9 14.8,19.8 14.9,19.6 15.1,19.3 15.3,19 15.4,18.6 15.6,18.1 15.7,17.2 15.9,16 16,14.7 16.2,13.4 16.3,12.5 16.5,12.5 16.7,13.6 16.8,14.5 17,15.9 17.1,18.1 17.3,21.2 17.4,23.9 17.6,25.8 17.7,27.2 17.9,28.5 18.1,28.7 18.2,27.7 18.4,27 18.5,26.9 18.7,27.1 18.8,26.6 19,24.8 19.1,23.4 19.3,22.6 19.5,22 19.6,21.2 19.8,20.7 19.9,20.3 20.1,20.2 20.2,20.2 20.4,20.1 20.5,20 20.7,19.9 20.9,19.9 21,19.8 21.2,19.8 21.3,19.7 21.5,19.7 21.6,19.6 21.8,19.6 21.9,19.6 22.1,19.5 22.3,19.4 22.4,19.4 22.6,19.4 22.7,19.3 22.9,19.2 23,19.2 23.2,19.2 23.3,19.1 23.5,19 23.7,19 23.8,18.9 24,18.8 24.1,18.7 24.3,18.4 24.4,18.2 24.6,18.2 24.7,18 24.9,17.9 25.1,17.7 25.2,17.5 25.4,17.2 25.5,16.9 25.7,16.7 25.8,16.6 26,16.4 26.1,16.2 26.3,16 26.5,15.8 26.6,15.7 26.8,15.5 26.9,15.4 27.1,15.4 27.2,15.4 27.4,15.4 27.5,15.4 27.7,15.5 27.9,15.6 28,15.7 28.2,15.9 28.3,16.1 28.5,16.4 28.6,16.7 28.8,17 28.9,17.3 29.1,17.5 29.3,17.9 29.4,18.1 29.6,18.4 29.7,18.7 29.9,19 30,19.2 30.2,19.5 30.4,19.7 30.5,19.8 30.7,19.9 30.8,20 31,20 31.1,20.2 31.3,20.2 31.4,20.2 31.6,20.3 31.8,20.3 31.9,20.3 32.1,20.3 32.2,20.4 32.4,20.4 32.5,20.4 32.7,20.3 32.8,20.3 33,20.2 33.2,20.3 33.3,20.5 33.5,20.4 33.6,20.4 33.8,20.5 33.9,20.5 34.1,20.5 34.2,20.4 34.4,20.3 34.6,20.3 34.7,20.5 34.9,20.5 35,20.5 35.2,20.5 35.3,20.5 35.5,20.5 35.6,20.5 35.8,20.5 36,20.5 36.1,20.6 36.3,20.6 36.4,20.6 36.6,20.6 36.7,20.5 36.9,20.5 37,20.6 37.2,20.6 37.4,20.6 37.5,20.6 37.7,20.6 37.8,20.7 38,20.7 38.1,20.7 38.3,20.7 38.4,20.7 38.6,20.8 38.8,20.7 38.9,20.7 39.1,20.8 39.2,20.8 39.4,20.7 39.5,20.7 39.7,20.8 39.8,20.8 " />
    <polyline id="ECG8_V3" transform="translate(41 80)" points="0,19.7 0.2,19.7 0.3,19.8 0.5,19.8 0.6,19.8 0.8,19.8 0.9,19.8 1.1,19.7 1.2,19.7 1.4,19.8 1.6,19.8 1.7,19.9 1.9,19.9 2,19.9 2.2,19.9 2.3,19.9 2.5,20 2.6,20.2 2.8,20.1 3,20.1 3.1,20.1 3.3,20.1 3.4,20.1 3.6,20.1 3.7,20.2 3.9,20.2 4,20.2 4.2,20.2 4.4,20.2 4.5,20.3 4.7,20.3 4.8,20.3 5,20.3 5.1,20.2 5.3,20.1 5.4,20.2 5.6,20.3 5.8,20.3 5.9,20.2 6.1,20.3 6.2,20.4 6.4,20.5 6.5,20.4 6.7,20.3 6.8,20.2 7,20.3 7.2,20.4 7.3,20.4 7.5,20.4 7.6,20.5 7.8,20.4 7.9,20.3 8.1,20.3 8.2,20.3 8.4,20.3 8.6,20.3 8.7,20.3 8.9,20.3 9,20.3 9.2,20.4 9.3,20.3 9.5,20.3 9.6,20.4 9.8,20.3 10,20.3 10.1,20.3 10.3,20.3 10.4,20.4 10.6,20.3 10.7,20.1 10.9,20 11.1,20 11.2,19.8 11.4,19.6 11.5,19.5 11.7,19.4 11.8,19.3 12,19.2 12.1,19 12.3,19.1 12.5,19.5 12.6,19.7 12.8,19.7 12.9,19.7 13.1,20 13.2,20.3 13.4,20.3 13.5,20.3 13.7,20.2 13.9,20.1 14,20.1 14.2,19.9 14.3,20 14.5,20.1 14.6,20 14.8,19.9 14.9,19.8 15.1,19.7 15.3,19.6 15.4,19.3 15.6,19 15.7,18.4 15.9,17.5 16,16.3 16.2,15.1 16.3,14.2 16.5,14 16.7,14.8 16.8,15.5 17,16.8 17.1,18.7 17.3,20.5 17.4,21.7 17.6,22.6 17.7,23.2 17.9,23.7 18.1,23.4 18.2,22.5 18.4,21.9 18.5,21.3 18.7,21.1 18.8,21.3 19,21.2 19.1,21.5 19.3,21.9 19.5,21.6 19.6,21 19.8,20.5 19.9,20.3 20.1,20.3 20.2,20.3 20.4,20.3 20.5,20.3 20.7,20.3 20.9,20.2 21,20.1 21.2,20.1 21.3,20.1 21.5,20.1 21.6,20 21.8,20 21.9,20 22.1,19.9 22.3,19.7 22.4,19.7 22.6,19.7 22.7,19.6 22.9,19.4 23,19.4 23.2,19.4 23.3,19.3 23.5,19.2 23.7,19.1 23.8,19 24,18.9 24.1,18.8 24.3,18.5 24.4,18.3 24.6,18.2 24.7,18 24.9,17.8 25.1,17.7 25.2,17.4 25.4,17.2 25.5,16.8 25.7,16.6 25.8,16.5 26,16.3 26.1,15.9 26.3,15.7 26.5,15.4 26.6,15.2 26.8,15 26.9,14.7 27.1,14.7 27.2,14.7 27.4,14.6 27.5,14.4 27.7,14.4 27.9,14.5 28,14.6 28.2,14.7 28.3,14.9 28.5,15.1 28.6,15.3 28.8,15.6 28.9,15.9 29.1,16.2 29.3,16.4 29.4,16.7 29.6,16.9 29.7,17.2 29.9,17.4 30,17.8 30.2,18.1 30.4,18.2 30.5,18.4 30.7,18.5 30.8,18.6 31,18.8 31.1,18.9 31.3,19 31.4,19.1 31.6,19.2 31.8,19.3 31.9,19.3 32.1,19.4 32.2,19.4 32.4,19.4 32.5,19.4 32.7,19.4 32.8,19.4 33,19.4 33.2,19.4 33.3,19.5 33.5,19.4 33.6,19.4 33.8,19.6 33.9,19.5 34.1,19.5 34.2,19.4 34.4,19.4 34.6,19.4 34.7,19.4 34.9,19.5 35,19.5 35.2,19.5 35.3,19.5 35.5,19.5 35.6,19.5 35.8,19.5 36,19.5 36.1,19.6 36.3,19.6 36.4,19.7 36.6,19.7 36.7,19.7 36.9,19.6 37,19.7 37.2,19.7 37.4,19.7 37.5,19.8 37.7,19.9 37.8,19.9 38,19.9 38.1,19.9 38.3,19.9 38.4,19.9 38.6,19.9 38.8,19.9 38.9,19.9 39.1,20 39.2,20 39.4,20 39.5,20 39.7,20 39.8,20 " />
    <polyline id="ECG9_V4" transform="translate(41 120)" points="0,20.5 0.2,20.4 0.3,20.4 0.5,20.4 0.6,20.5 0.8,20.6 0.9,20.5 1.1,20.4 1.2,20.4 1.4,20.5 1.6,20.5 1.7,20.5 1.9,20.5 2,20.5 2.2,20.5 2.3,20.4 2.5,20.5 2.6,20.6 2.8,20.6 3,20.6 3.1,20.6 3.3,20.6 3.4,20.6 3.6,20.6 3.7,20.7 3.9,20.7 4,20.7 4.2,20.7 4.4,20.7 4.5,20.8 4.7,20.8 4.8,20.8 5,20.8 5.1,20.7 5.3,20.5 5.4,20.6 5.6,20.6 5.8,20.6 5.9,20.6 6.1,20.7 6.2,20.7 6.4,20.8 6.5,20.8 6.7,20.8 6.8,20.7 7,20.7 7.2,20.8 7.3,20.8 7.5,20.8 7.6,20.8 7.8,20.7 7.9,20.7 8.1,20.6 8.2,20.6 8.4,20.7 8.6,20.8 8.7,20.6 8.9,20.5 9,20.5 9.2,20.6 9.3,20.5 9.5,20.5 9.6,20.6 9.8,20.6 10,20.6 10.1,20.5 10.3,20.5 10.4,20.6 10.6,20.4 10.7,20.3 10.9,20.2 11.1,20.2 11.2,20.1 11.4,19.8 11.5,19.7 11.7,19.6 11.8,19.6 12,19.6 12.1,19.3 12.3,19.5 12.5,19.8 12.6,19.9 12.8,19.7 12.9,19.5 13.1,19.8 13.2,20.1 13.4,20.1 13.5,20.1 13.7,20 13.9,19.9 14,19.9 14.2,19.8 14.3,19.9 14.5,20.1 14.6,20.1 14.8,20.1 14.9,20 15.1,19.9 15.3,19.9 15.4,19.8 15.6,19.7 15.7,19.5 15.9,19.2 16,18.7 16.2,18.1 16.3,17.4 16.5,16.8 16.7,16.6 16.8,16.4 17,16.3 17.1,16.3 17.3,16.1 17.4,15.6 17.6,15.1 17.7,14.5 17.9,13.3 18.1,11.3 18.2,9.1 18.4,7.7 18.5,6.8 18.7,7.3 18.8,9.8 19,13.3 19.1,16.7 19.3,18.6 19.5,19.1 19.6,19 19.8,18.9 19.9,19 20.1,19.2 20.2,19.3 20.4,19.4 20.5,19.4 20.7,19.3 20.9,19.3 21,19.3 21.2,19.2 21.3,19.2 21.5,19.1 21.6,19.1 21.8,19.1 21.9,19.1 22.1,19 22.3,18.9 22.4,18.8 22.6,18.7 22.7,18.7 22.9,18.6 23,18.5 23.2,18.6 23.3,18.5 23.5,18.4 23.7,18.3 23.8,18.2 24,18.1 24.1,18 24.3,17.9 24.4,17.8 24.6,17.7 24.7,17.6 24.9,17.4 25.1,17.4 25.2,17.3 25.4,17.1 25.5,17 25.7,16.8 25.8,16.8 26,16.6 26.1,16.4 26.3,16.2 26.5,16.1 26.6,16 26.8,15.8 26.9,15.6 27.1,15.5 27.2,15.5 27.4,15.3 27.5,15 27.7,14.9 27.9,14.8 28,14.8 28.2,14.7 28.3,14.8 28.5,14.8 28.6,14.9 28.8,14.9 28.9,15 29.1,15 29.3,15.1 29.4,15.1 29.6,15.1 29.7,15.1 29.9,15.3 30,15.5 30.2,15.7 30.4,15.8 30.5,16 30.7,16.1 30.8,16.3 31,16.5 31.1,16.6 31.3,16.7 31.4,16.8 31.6,17 31.8,17.2 31.9,17.3 32.1,17.4 32.2,17.5 32.4,17.6 32.5,17.7 32.7,17.7 32.8,17.7 33,17.7 33.2,17.8 33.3,17.9 33.5,17.8 33.6,17.9 33.8,18 33.9,18.1 34.1,18.1 34.2,17.9 34.4,17.8 34.6,17.9 34.7,18 34.9,18 35,18 35.2,18 35.3,18.1 35.5,18.1 35.6,18.1 35.8,18.1 36,18.1 36.1,18.1 36.3,18.1 36.4,18.2 36.6,18.3 36.7,18.2 36.9,18.2 37,18.2 37.2,18.3 37.4,18.3 37.5,18.3 37.7,18.4 37.8,18.4 38,18.4 38.1,18.3 38.3,18.4 38.4,18.4 38.6,18.4 38.8,18.3 38.9,18.4 39.1,18.6 39.2,18.7 39.4,18.6 39.5,18.7 39.7,18.6 39.8,18.6 " />
    <polyline id="ECG10_V5" transform="translate(41 160)" points="0,19.8 0.2,19.8 0.3,19.8 0.5,19.9 0.6,20 0.8,19.9 0.9,19.7 1.1,19.8 1.2,19.7 1.4,19.6 1.6,19.7 1.7,19.8 1.9,19.7 2,19.7 2.2,19.8 2.3,19.8 2.5,20 2.6,20.2 2.8,20 3,19.9 3.1,19.9 3.3,20 3.4,20 3.6,19.9 3.7,20.1 3.9,20.1 4,20.1 4.2,20.1 4.4,20.2 4.5,20.4 4.7,20.3 4.8,20.3 5,20.3 5.1,20.1 5.3,19.7 5.4,19.8 5.6,20 5.8,20.1 5.9,20.1 6.1,20.1 6.2,20.2 6.4,20.4 6.5,20.3 6.7,20.3 6.8,20.1 7,20.1 7.2,20.4 7.3,20.4 7.5,20.4 7.6,20.4 7.8,20.5 7.9,20.4 8.1,20.3 8.2,20.2 8.4,20.4 8.6,20.6 8.7,20.2 8.9,20.1 9,20.3 9.2,20.3 9.3,20.1 9.5,20.3 9.6,20.3 9.8,20.3 10,20.3 10.1,20.1 10.3,20.2 10.4,20.3 10.6,20.2 10.7,20 10.9,20 11.1,20 11.2,19.9 11.4,19.7 11.5,19.4 11.7,19.6 11.8,19.7 12,19.7 12.1,19.1 12.3,19.3 12.5,19.8 12.6,19.9 12.8,19.7 12.9,19.3 13.1,19.4 13.2,19.7 13.4,19.6 13.5,19.7 13.7,19.8 13.9,19.7 14,19.6 14.2,19.7 14.3,19.9 14.5,20.2 14.6,20.3 14.8,20.3 14.9,20.4 15.1,20.2 15.3,20 15.4,20.1 15.6,20.1 15.7,20.1 15.9,20.1 16,20 16.2,19.7 16.3,19.4 16.5,18.8 16.7,18.4 16.8,18 17,17.5 17.1,16.7 17.3,15.8 17.4,14.8 17.6,14 17.7,13 17.9,11.1 18.1,8.5 18.2,5.8 18.4,3.9 18.5,3 18.7,3.8 18.8,6.8 19,11.5 19.1,15.9 19.3,18.4 19.5,19.4 19.6,19.8 19.8,20.1 19.9,20.5 20.1,20.8 20.2,21 20.4,21.1 20.5,21.1 20.7,21.2 20.9,21.2 21,21.2 21.2,21.2 21.3,21.2 21.5,21.4 21.6,21.5 21.8,21.5 21.9,21.7 22.1,21.5 22.3,21.5 22.4,21.7 22.6,21.7 22.7,21.7 22.9,21.6 23,21.6 23.2,21.7 23.3,21.7 23.5,21.7 23.7,21.6 23.8,21.6 24,21.6 24.1,21.6 24.3,21.6 24.4,21.6 24.6,21.7 24.7,21.6 24.9,21.5 25.1,21.5 25.2,21.5 25.4,21.5 25.5,21.3 25.7,21.2 25.8,21.3 26,21.3 26.1,21 26.3,21 26.5,21.1 26.6,21.1 26.8,20.7 26.9,20.4 27.1,20.5 27.2,20.6 27.4,20.2 27.5,19.8 27.7,19.7 27.9,19.4 28,19.3 28.2,19.3 28.3,19.2 28.5,19.2 28.6,19.2 28.8,19.2 28.9,19.2 29.1,19.1 29.3,19.2 29.4,19 29.6,18.8 29.7,18.8 29.9,18.9 30,19 30.2,19.1 30.4,19.2 30.5,19.3 30.7,19.4 30.8,19.7 31,19.8 31.1,19.8 31.3,19.8 31.4,19.9 31.6,20.2 31.8,20.4 31.9,20.5 32.1,20.5 32.2,20.7 32.4,20.9 32.5,20.9 32.7,20.8 32.8,20.9 33,21 33.2,21.1 33.3,21.3 33.5,21.1 33.6,21.1 33.8,21.2 33.9,21.2 34.1,21.2 34.2,21.1 34.4,21 34.6,21 34.7,21.2 34.9,21.3 35,21.2 35.2,21.1 35.3,21.3 35.5,21.2 35.6,21.2 35.8,21.3 36,21.2 36.1,21 36.3,21 36.4,21.2 36.6,21.4 36.7,21.3 36.9,21.3 37,21.2 37.2,21.3 37.4,21.3 37.5,21.4 37.7,21.5 37.8,21.4 38,21.3 38.1,21.3 38.3,21.3 38.4,21.3 38.6,21.3 38.8,21.3 38.9,21.4 39.1,21.7 39.2,21.8 39.4,21.5 39.5,21.6 39.7,21.6 39.8,21.5 " />
    <polyline id="ECG11_V6" transform="translate(41 200)" points="0,19.7 0.2,20 0.3,20 0.5,20.1 0.6,20.1 0.8,20.1 0.9,20 1.1,20 1.2,19.8 1.4,19.8 1.6,20 1.7,20 1.9,19.9 2,19.8 2.2,19.8 2.3,19.8 2.5,20 2.6,20.3 2.8,20.3 3,20.2 3.1,20 3.3,19.8 3.4,19.8 3.6,19.9 3.7,20 3.9,20.1 4,19.9 4.2,19.8 4.4,19.8 4.5,20 4.7,20.1 4.8,20 5,20 5.1,19.9 5.3,19.7 5.4,19.7 5.6,19.9 5.8,19.9 5.9,19.9 6.1,19.9 6.2,20 6.4,20 6.5,19.9 6.7,19.8 6.8,19.6 7,19.7 7.2,19.9 7.3,19.9 7.5,20 7.6,20 7.8,19.9 7.9,19.8 8.1,20 8.2,20 8.4,19.8 8.6,19.8 8.7,20 8.9,20 9,20 9.2,20 9.3,20 9.5,20.2 9.6,20.1 9.8,20 10,20.1 10.1,20.2 10.3,20.2 10.4,20.1 10.6,20 10.7,20 10.9,20 11.1,19.9 11.2,19.8 11.4,19.6 11.5,19.5 11.7,19.6 11.8,19.6 12,19.7 12.1,19.6 12.3,19.7 12.5,19.7 12.6,19.5 12.8,19.4 12.9,19.4 13.1,19.6 13.2,19.7 13.4,19.8 13.5,19.7 13.7,19.6 13.9,19.6 14,19.6 14.2,19.6 14.3,20.1 14.5,20.2 14.6,20.2 14.8,20.3 14.9,20.3 15.1,20.4 15.3,20.6 15.4,20.6 15.6,20.7 15.7,20.8 15.9,20.9 16,20.8 16.2,20.6 16.3,20.4 16.5,20.1 16.7,19.5 16.8,19 17,18.5 17.1,17.7 17.3,16.5 17.4,15.6 17.6,14.9 17.7,14 17.9,12.2 18.1,9.7 18.2,7.2 18.4,5.2 18.5,4.4 18.7,4.6 18.8,6.6 19,10.5 19.1,14.3 19.3,16.7 19.5,18.1 19.6,19.1 19.8,19.8 19.9,20.2 20.1,20.5 20.2,20.6 20.4,20.7 20.5,20.7 20.7,20.8 20.9,20.9 21,20.9 21.2,20.9 21.3,21 21.5,21.2 21.6,21.2 21.8,21.2 21.9,21.2 22.1,21.1 22.3,21.3 22.4,21.5 22.6,21.6 22.7,21.5 22.9,21.4 23,21.5 23.2,21.6 23.3,21.4 23.5,21.3 23.7,21.3 23.8,21.5 24,21.4 24.1,21.4 24.3,21.6 24.4,21.5 24.6,21.5 24.7,21.6 24.9,21.5 25.1,21.7 25.2,21.7 25.4,21.6 25.5,21.4 25.7,21.3 25.8,21.2 26,21.2 26.1,21.2 26.3,21.2 26.5,21.3 26.6,21.4 26.8,21.2 26.9,20.9 27.1,20.9 27.2,21 27.4,20.9 27.5,20.5 27.7,20.3 27.9,20.3 28,20.4 28.2,20 28.3,20 28.5,20.1 28.6,19.9 28.8,19.8 28.9,19.7 29.1,19.6 29.3,19.5 29.4,19.6 29.6,19.6 29.7,19.4 29.9,19.4 30,19.5 30.2,19.5 30.4,19.4 30.5,19.4 30.7,19.6 30.8,19.8 31,19.8 31.1,19.6 31.3,19.7 31.4,20 31.6,20.2 31.8,20.2 31.9,20 32.1,20.1 32.2,20.2 32.4,20.3 32.5,20.3 32.7,20.3 32.8,20.1 33,20.2 33.2,20.6 33.3,20.8 33.5,20.8 33.6,20.8 33.8,20.8 33.9,20.7 34.1,20.8 34.2,20.8 34.4,20.6 34.6,20.6 34.7,20.7 34.9,20.8 35,20.6 35.2,20.4 35.3,20.6 35.5,21 35.6,21 35.8,20.7 36,20.5 36.1,20.5 36.3,20.7 36.4,20.6 36.6,20.6 36.7,20.8 36.9,20.8 37,20.7 37.2,20.8 37.4,20.8 37.5,20.9 37.7,20.8 37.8,20.7 38,20.7 38.1,20.9 38.3,21.1 38.4,21.1 38.6,21 38.8,20.8 38.9,20.5 39.1,20.7 39.2,21 39.4,21.2 39.5,21.2 39.7,21.3 39.8,21.1 " />
    <g id="ECGTicks_0" style="stroke:black;stroke-width:0.2">
      <g transform="translate(15.6 0)">
        <line y1="17.7" y2="22.7" />
        <line y1="57.8" y2="62.8" />
        <line y1="97.6" y2="102.6" />
        <line y1="137.3" y2="142.3" />
        <line y1="177.5" y2="182.5" />
        <line y1="217.7" y2="222.7" />
      </g>
      <g transform="translate(56.6 0)">
        <line y1="15.3" y2="20.3" />
        <line y1="55.6" y2="60.6" />
        <line y1="96.5" y2="101.5" />
        <line y1="137.2" y2="142.2" />
        <line y1="177.6" y2="182.6" />
        <line y1="218.2" y2="223.2" />
      </g>
    </g>
    <g id="ECGTicks_1" style="stroke:black;stroke-width:0.2">
      <g transform="translate(20.2 0)">
        <line y1="17.4" y2="22.4" />
        <line y1="58.4" y2="63.4" />
        <line y1="98.5" y2="103.5" />
        <line y1="137.1" y2="142.1" />
        <line y1="176.9" y2="181.9" />
        <line y1="218.5" y2="223.5" />
      </g>
      <g transform="translate(61.2 0)">
        <line y1="17" y2="22" />
        <line y1="57.7" y2="62.7" />
        <line y1="97.8" y2="102.8" />
        <line y1="136.8" y2="141.8" />
        <line y1="178.5" y2="183.5" />
        <line y1="218.1" y2="223.1" />
      </g>
    </g>
    <g id="ECGTicks_2" style="stroke:red;stroke-width:0.2">
      <g transform="translate(9.3 0)">
        <line y1="18" y2="23" />
        <line y1="58.1" y2="63.1" />
        <line y1="97.6" y2="102.6" />
        <line y1="136.9" y2="141.9" />
        <line y1="177.7" y2="182.7" />
        <line y1="217.8" y2="222.8" />
      </g>
      <g transform="translate(50.3 0)">
        <line y1="19" y2="24" />
        <line y1="57.7" y2="62.7" />
        <line y1="97.8" y2="102.8" />
        <line y1="138" y2="143" />
        <line y1="177.6" y2="182.6" />
        <line y1="217.5" y2="222.5" />
      </g>
    </g>
    <g id="ECGTicks_3" style="stroke:blue;stroke-width:0.2">
      <line x1="30.7" y1="97.9" x2="30.7" y2="102.9" />
      <line x1="29.7" y1="140.4" x2="29.7" y2="145.4" />
      <line x1="31" y1="175.9" x2="31" y2="180.9" />
      <line x1="30.4" y1="216.1" x2="30.4" y2="221.1" />
      <line x1="71.4" y1="19.9" x2="71.4" y2="24.9" />
      <line x1="72" y1="96.3" x2="72" y2="101.3" />
      <line x1="71.4" y1="133.3" x2="71.4" y2="138.3" />
      <line x1="71.7" y1="176.9" x2="71.7" y2="181.9" />
      <line x1="69" y1="217.9" x2="69" y2="222.9" />
    </g>
    <g id="ECGTicks_4" style="stroke:green;stroke-width:0.2">
      <g transform="translate(21.8 0)">
        <line y1="17.4" y2="22.4" />
        <line y1="58.7" y2="63.7" />
        <line y1="98.8" y2="103.8" />
        <line y1="137" y2="142" />
        <line y1="176.8" y2="181.8" />
        <line y1="218.7" y2="223.7" />
      </g>
      <g transform="translate(62.8 0)">
        <line y1="16.3" y2="21.3" />
        <line y1="57.1" y2="62.1" />
        <line y1="97.5" y2="102.5" />
        <line y1="136.6" y2="141.6" />
        <line y1="179" y2="184" />
        <line y1="218.7" y2="223.7" />
      </g>
    </g>
    <g id="ECGTicks_5" style="stroke:green;stroke-width:0.2">
      <g transform="translate(23.3 0)">
        <line y1="17.1" y2="22.1" />
        <line y1="58.4" y2="63.4" />
        <line y1="98.8" y2="103.8" />
        <line y1="137.3" y2="142.3" />
        <line y1="176.7" y2="181.7" />
        <line y1="218.6" y2="223.6" />
      </g>
      <g transform="translate(64.3 0)">
        <line y1="16.2" y2="21.2" />
        <line y1="56.6" y2="61.6" />
        <line y1="96.8" y2="101.8" />
        <line y1="136" y2="141" />
        <line y1="179.2" y2="184.2" />
        <line y1="218.9" y2="223.9" />
      </g>
    </g>
  </g>
  <g id="ChNames" style="font-family:Arial, sans-serif; font-size:12px; fill:#808080;">
    <text x="7.6" y="12">I</text>
    <text x="7.6" y="163.2">II</text>
    <text x="7.6" y="314.4">III</text>
    <text x="7.6" y="465.5">AVR</text>
    <text x="7.6" y="616.7">AVL</text>
    <text x="7.6" y="767.9">AVF</text>
    <text x="162.5" y="12">V1</text>
    <text x="162.5" y="163.2">V2</text>
    <text x="162.5" y="314.4">V3</text>
    <text x="162.5" y="465.5">V4</text>
    <text x="162.5" y="616.7">V5</text>
    <text x="162.5" y="767.9">V6</text>
  </g>
</svg>